<svg id="レイヤー_1" data-name="レイヤー 1" xmlns="http://www.w3.org/2000/svg" viewBox="0 0 400 60"><defs><style>.cls-1{fill:#d7316c;stroke:#d7316c;stroke-miterlimit:10;}</style></defs><path class="cls-1" d="M40.15,50a72.08,72.08,0,0,1-5.23-12.64l-4.59.26a3.65,3.65,0,0,1-3.73-3.3l-.22-3.52A3.68,3.68,0,0,1,29.69,27l3.63-.21C33.11,16.21,37.32,8.37,47,8.37A12.82,12.82,0,0,1,54.66,11a3.43,3.43,0,0,1,.53,4.91L53,18.67a3.36,3.36,0,0,1-4.85.64c-.53-.48-2.19-.32-3,.26-.37.27-1.28,2.46-1.28,6.62l10.19-.64a3.49,3.49,0,0,1,3.74,3.25L58,32.32a3.43,3.43,0,0,1-3.31,3.74l-9,.53A70.55,70.55,0,0,0,49.43,45,3.53,3.53,0,0,1,48,49.71L45,51.42A3.57,3.57,0,0,1,40.15,50Zm7.15-1.49a2.06,2.06,0,0,0,.85-2.88,65.44,65.44,0,0,1-4-9.45.71.71,0,0,1,.64-.9l9.87-.64a2.08,2.08,0,0,0,2-2.19l-.21-3.52c-.27-1.44-1.28-2.13-2.24-1.92l-10.94.59c-.75,0-.48-.27-.8-.59,0-4.32.53-7.63,2-8.64A3.77,3.77,0,0,1,49,18.08c1.28.75,2.13.85,2.93-.32L54.07,15a2,2,0,0,0-.26-2.94A11.74,11.74,0,0,0,47,9.76c-9.18,0-12.54,8.11-12.17,17.71a.75.75,0,0,1-.74.69l-4.27.27a2.09,2.09,0,0,0-2,2.24L28,34.19a2.08,2.08,0,0,0,2.24,2l5.12-.31a.76.76,0,0,1,.75.53,71.72,71.72,0,0,0,5.17,12.91,2.08,2.08,0,0,0,2.88.85Z"/><path class="cls-1" d="M74.09,48.59c-3.78,2.94-6.24,3.1-7.89,3.1-2.3,0-3.63-1.34-3.74-3.2L62.31,45c-.11-1.92,1.06-3.31,3.25-3.68a4.88,4.88,0,0,0,1.55-.64,32,32,0,0,1-3.15-7C62,27.42,61.77,18,65.4,13.07c3.73-5.13,10.72-4.8,14.72.16,3.47,4.26,4.64,11.52,2.78,19.89a32.86,32.86,0,0,1-2.35,7.1,20.79,20.79,0,0,0,3,2.13c2,1.34,2.4,2.94,1.6,4.64l-1.5,3.2A3.3,3.3,0,0,1,79,51.85,28,28,0,0,1,74.09,48.59Zm8.33,1,1.44-3.2a2.23,2.23,0,0,0-1-2.82A32.57,32.57,0,0,1,79.22,41a.78.78,0,0,1-.11-.85,44.75,44.75,0,0,0,2.34-7.31C83.22,24.91,82,18.24,79,14.13s-9.23-4.48-12.37-.21c-3.36,4.59-3.26,13.39-1.34,19.26a38,38,0,0,0,3.36,7.25.8.8,0,0,1-.1,1,5.59,5.59,0,0,1-2.83,1.17,2.33,2.33,0,0,0-2,2.29l.1,3.52a2.08,2.08,0,0,0,2.3,1.92,10.33,10.33,0,0,0,7.52-3.14.64.64,0,0,1,.9,0,15.62,15.62,0,0,0,5,3.36A2.08,2.08,0,0,0,82.42,49.55ZM72.28,19.89c.16-.69,1.07-.48,1.23-.15a15.59,15.59,0,0,1,.53,11,.72.72,0,0,1-1.39.11A23.41,23.41,0,0,1,72.28,19.89Z"/><path class="cls-1" d="M89.58,37.55c-1.81-11.68,4.32-20.22,15.47-20.22,9.39,0,15.68,7.26,15.68,16.92a4.86,4.86,0,0,1-4.9,4.9H100.09c1.07,2.24,2.88,2.78,5.17,2.78A9.89,9.89,0,0,0,111.45,40a3.06,3.06,0,0,1,4.54.38l2.08,2.4a3.34,3.34,0,0,1-.27,4.64,19.22,19.22,0,0,1-12.59,4.27C96.51,51.58,91.07,46.62,89.58,37.55Zm27.26,8.8a1.86,1.86,0,0,0,.16-2.66l-2-2.4a1.86,1.86,0,0,0-2.56-.27,11.56,11.56,0,0,1-7.15,2.29c-2.61,0-5.65-.48-6.88-4.53a.81.81,0,0,1,.75-1h16.7a3.46,3.46,0,0,0,3.52-3.52c0-9-6-15.53-14.3-15.53-10.14,0-15.84,7.52-14.08,18.62,1.33,8.32,6.35,12.91,14.24,12.91A18,18,0,0,0,116.84,46.35ZM98.28,29.76c1.06-2.88,3.68-4,6.77-3.94s5.55,1.17,6.24,3.94a.7.7,0,0,1-.58,1H98.92A.69.69,0,0,1,98.28,29.76Zm11.36-.37a5,5,0,0,0-4.59-2.29c-1.92,0-4.27.64-5.07,2.29Z"/><path class="cls-1" d="M144.81,47.8c-5.44,3.83-13.28,3-17.18-2.41-4.85-6.72-2.72-18.35-2.5-19.63a3.58,3.58,0,0,1,3.41-2.83,31.83,31.83,0,0,1,4.16.81,3.48,3.48,0,0,1,2.77,4.16c-.79,3.84-.69,9.33.65,11.09.58.86,2.13.7,3.09-.1,1.87-1.71,3.09-6.57,3.25-9.39a5.15,5.15,0,0,1,5.29-5,5.27,5.27,0,0,1,5.17,5.28A71.29,71.29,0,0,0,153.51,40c.64,2.51,1.06,3.85,1.12,4a3.56,3.56,0,0,1-2.35,4.38L149,49.45A3.62,3.62,0,0,1,144.81,47.8Zm7-.81a2,2,0,0,0,1.34-2.61c0-.11-.38-1.44-1-4.05a78.71,78.71,0,0,1-.64-10.57,3.84,3.84,0,0,0-7.68-.21c-.16,3-1.39,8.32-3.73,10.4-1.39,1.23-4,1.39-5.13,0-1.86-2.51-1.65-8.8-.85-12.32a2.09,2.09,0,0,0-1.71-2.51l-3.89-.74c-1-.22-1.81.69-2,1.65-.26,1.23-2.4,12.32,2.25,18.56a11.45,11.45,0,0,0,16,1.6c.53-.37,1-.16,1.17.48a2.16,2.16,0,0,0,2.66,1.44Z"/><path class="cls-1" d="M168.51,47.58,158.38,28.11a3.56,3.56,0,0,1,1.55-4.75L163,21.71a3.61,3.61,0,0,1,4.75,1.49l5.81,11.2,7-11.47a3.46,3.46,0,0,1,4.8-1.17l3,1.81a3.51,3.51,0,0,1,1.18,4.86L177.69,47.9A5.29,5.29,0,0,1,173,50.41,5.16,5.16,0,0,1,168.51,47.58Zm8-.43,11.84-19.47a2.06,2.06,0,0,0-.69-2.93l-3-1.82a2.16,2.16,0,0,0-2.93.7l-7.63,12.53a.68.68,0,0,1-1.23,0L166.54,23.9a2,2,0,0,0-2.88-.91l-3.09,1.6a2.08,2.08,0,0,0-.91,2.83l10.08,19.52A3.92,3.92,0,0,0,173.21,49,3.85,3.85,0,0,0,176.52,47.15Z"/><path class="cls-1" d="M193.13,37.55c-1.82-11.68,4.32-20.22,15.47-20.22,9.38,0,15.68,7.26,15.68,16.92a4.86,4.86,0,0,1-4.91,4.9H203.64c1.06,2.24,2.88,2.78,5.17,2.78A9.93,9.93,0,0,0,215,40a3.05,3.05,0,0,1,4.53.38l2.08,2.4a3.33,3.33,0,0,1-.26,4.64,19.24,19.24,0,0,1-12.59,4.27C200.06,51.58,194.62,46.62,193.13,37.55Zm27.26,8.8a1.86,1.86,0,0,0,.16-2.66l-2-2.4A1.86,1.86,0,0,0,216,41a11.56,11.56,0,0,1-7.15,2.29c-2.61,0-5.65-.48-6.88-4.53a.8.8,0,0,1,.75-1h16.69a3.45,3.45,0,0,0,3.52-3.52c0-9-6-15.53-14.29-15.53-10.14,0-15.85,7.52-14.09,18.62,1.34,8.32,6.35,12.91,14.25,12.91A18,18,0,0,0,220.39,46.35ZM201.82,29.76c1.07-2.88,3.68-4,6.78-3.94s5.54,1.17,6.24,3.94a.7.7,0,0,1-.59,1H202.46A.7.7,0,0,1,201.82,29.76Zm11.37-.37a5,5,0,0,0-4.59-2.29c-1.92,0-4.27.64-5.07,2.29Z"/><path class="cls-1" d="M239.9,48c-.54-1.44-4.54-13.93.21-21.56,3.68-6.23,13-7.52,18.41-3.36,5.49-4.26,14.66-2.72,18.4,3.36,4.69,7.63.69,20.12.27,21.56a3.54,3.54,0,0,1-4.49,2.18l-3.3-1.12a3.6,3.6,0,0,1-2.3-4.42c1.28-3.84,2-10.19.86-12.65a2.11,2.11,0,0,0-3.15-.42c-1,1.28-.91,2.5-1,5.17a5.15,5.15,0,0,1-5.28,5.6,5.21,5.21,0,0,1-5.34-5.6c0-1.65.16-4.21-1-5.23A2.39,2.39,0,0,0,249,32c-1.39,2.35-.43,8.81.85,12.65a3.52,3.52,0,0,1-2.24,4.42l-3.31,1.12A3.49,3.49,0,0,1,239.9,48Zm7.31-.27A2.12,2.12,0,0,0,248.54,45c-1.07-3.09-2.61-10.62-.69-13.76a3.71,3.71,0,0,1,5.33-.7c1.33,1.34,1.39,4,1.39,6.19A3.94,3.94,0,0,0,258.52,41a3.78,3.78,0,0,0,3.89-4.22c0-2.19.11-5.07,1.39-6.19a3.75,3.75,0,0,1,5.38.7c1.87,3.14.32,10.67-.69,13.76a2.17,2.17,0,0,0,1.33,2.72l3.36,1.12a2.17,2.17,0,0,0,2.67-1.33c.43-1.34,4.22-13.34-.16-20.38-3.41-5.66-12.11-6.62-16.75-2.62a.7.7,0,0,1-.9,0c-4.7-4.16-13.29-2.88-16.76,2.62-4.37,7-.48,19-.05,20.38a2.11,2.11,0,0,0,2.67,1.33Z"/><path class="cls-1" d="M314.18,35.15a15.63,15.63,0,1,1-15.63-15.84A15.76,15.76,0,0,1,314.18,35.15Zm-1.39,0a14.24,14.24,0,1,0-14.24,14.46A14.34,14.34,0,0,0,312.79,35.15Zm-13.65,8.06a.71.71,0,0,1-.65,0,20.07,20.07,0,0,1-5.81-5c-2.72-3.84-1.44-8.11,2.93-8.11a4.11,4.11,0,0,1,3.2,1.5,3.57,3.57,0,0,1,3.2-1.5c4.6.43,5.29,4.54,2.88,8.11A17.5,17.5,0,0,1,299.14,43.21ZM302,31.52a2.78,2.78,0,0,0-2.56,1.66c-.15.53-1.33.69-1.33,0a2.45,2.45,0,0,0-2.51-1.66c-3.36.27-3.46,3.31-1.76,5.82a16,16,0,0,0,5,4.37,16.3,16.3,0,0,0,5-4.37C305.54,34.78,305.22,31.52,302,31.52Z"/><path class="cls-1" d="M336.39,50.51a18.34,18.34,0,0,1-4.91,0,16.52,16.52,0,0,1-14-15.57c-.26-7.58,3.79-13.61,10.78-15.74a16.29,16.29,0,0,1,6.72-.8c.11-3.25.32-5.65.37-6.35a3.54,3.54,0,0,1,3.73-3.3l3.53.26a3.54,3.54,0,0,1,3.25,3.84c0,.06-.7,10-.9,18.3a97.54,97.54,0,0,0,.85,15.68,3.56,3.56,0,0,1-2.88,4.06c-2.62.43-3.85.58-4.06.58A3.23,3.23,0,0,1,336.39,50.51Zm6.29-1a2.16,2.16,0,0,0,1.76-2.45,96.75,96.75,0,0,1-.9-15.9c.21-8.37.9-18.3.9-18.46a2.08,2.08,0,0,0-1.92-2.24L339,10.19a2.06,2.06,0,0,0-2.24,2c-.05.75-.27,3.41-.48,7a.8.8,0,0,1-.8.69,15.26,15.26,0,0,0-6.83.64c-6.35,2-10.08,7.47-9.76,14.35A15,15,0,0,0,331.7,49.13a20,20,0,0,0,5,0,.68.68,0,0,1,.53.21,2.58,2.58,0,0,0,1.92.75ZM326.63,34.62c-.27-5.28,4-8.06,8.69-6.94a.75.75,0,0,1,.54.7c0,5.39-.33,5.81.1,12.32,0,.37-.21.75-.53.75C330.57,42,326.89,39.42,326.63,34.62ZM334.41,29a5.22,5.22,0,0,0-6.4,5.55,6,6,0,0,0,6.51,5.6C334.2,35.52,334.41,34.19,334.41,29Z"/><path class="cls-1" d="M349.85,37.55c-1.81-11.68,4.32-20.22,15.47-20.22,9.39,0,15.68,7.26,15.68,16.92a4.86,4.86,0,0,1-4.9,4.9H360.35c1.07,2.24,2.89,2.78,5.18,2.78A9.93,9.93,0,0,0,371.72,40a3.05,3.05,0,0,1,4.53.38l2.08,2.4a3.33,3.33,0,0,1-.26,4.64,19.24,19.24,0,0,1-12.59,4.27C356.78,51.58,351.34,46.62,349.85,37.55Zm27.26,8.8a1.86,1.86,0,0,0,.16-2.66l-2-2.4a1.86,1.86,0,0,0-2.56-.27,11.56,11.56,0,0,1-7.15,2.29c-2.61,0-5.65-.48-6.88-4.53a.8.8,0,0,1,.75-1h16.7a3.45,3.45,0,0,0,3.51-3.52c0-9-6-15.53-14.29-15.53-10.14,0-15.85,7.52-14.09,18.62,1.34,8.32,6.35,12.91,14.25,12.91A18,18,0,0,0,377.11,46.35ZM358.54,29.76c1.07-2.88,3.68-4,6.78-3.94s5.55,1.17,6.24,3.94a.7.7,0,0,1-.59,1H359.18A.7.7,0,0,1,358.54,29.76Zm11.37-.37a5,5,0,0,0-4.59-2.29c-1.92,0-4.27.64-5.07,2.29Z"/><path class="cls-1" d="M23.05,19.55a.56.56,0,0,1-.25-.05,12,12,0,0,0-3-.41,28,28,0,0,1-3.2-.34C13.79,18.22,12,16.17,12.33,14a3.24,3.24,0,0,1,1.92-2.46,3.31,3.31,0,0,1,2-.22,3.36,3.36,0,0,1,.44-1.94,3.23,3.23,0,0,1,2.67-1.63c2.23-.12,4.07,1.93,4.27,4.79a26.48,26.48,0,0,1,0,3.21,11.77,11.77,0,0,0,.07,3,.66.66,0,0,1-.19.67A.65.65,0,0,1,23.05,19.55ZM22.6,19h0Zm.62-.55Zm-7.63-6.16a2.38,2.38,0,0,0-.9.19,2.15,2.15,0,0,0-1.27,1.64c-.27,1.59,1.18,3.1,3.39,3.52a27.06,27.06,0,0,0,3.06.32,19,19,0,0,1,2.59.27,22.88,22.88,0,0,1,0-2.6,26.52,26.52,0,0,0,0-3.08c-.16-2.24-1.5-3.87-3.11-3.77l0-.55,0,.55a2.14,2.14,0,0,0-1.77,1.08A2.18,2.18,0,0,0,17.55,12l.94,1.85-1.73-1.14A2.14,2.14,0,0,0,15.59,12.32Z"/><path class="cls-1" d="M27,14.53l-.43-.12a.61.61,0,0,1-.37-.49,8.84,8.84,0,0,0-.9-2.1,22.23,22.23,0,0,1-1-2.26c-.79-2.13-.12-4.22,1.54-4.87A2.64,2.64,0,0,1,28.32,5a2.76,2.76,0,0,1,.91,1.13,2.73,2.73,0,0,1,1.39-.41,2.67,2.67,0,0,1,2.23,1.17h0c1,1.48.36,3.58-1.5,4.89A24.44,24.44,0,0,1,29.21,13a9.22,9.22,0,0,0-1.93,1.21Zm-.54-1Zm.32-7.89a1.7,1.7,0,0,0-.58.11c-1.09.42-1.48,1.91-.91,3.46a21.55,21.55,0,0,0,1,2.14A18.46,18.46,0,0,1,27.09,13c.44-.3,1-.6,1.6-.93a19,19,0,0,0,2-1.19c1.35-.95,1.88-2.39,1.22-3.36a1.5,1.5,0,0,0-1.3-.68,1.53,1.53,0,0,0-1.29.7L28.24,9.29l.09-2.07a1.53,1.53,0,0,0-.66-1.32A1.5,1.5,0,0,0,26.79,5.61Z"/></svg>