<svg xmlns="http://www.w3.org/2000/svg" viewBox="0 0 231.01 129.43"><defs><style>.cls-1{fill:#9fa0a0;}</style></defs><g id="レイヤー_2" data-name="レイヤー 2"><g id="レイヤー_1-2" data-name="レイヤー 1"><path class="cls-1" d="M205.3,50.33A36.56,36.56,0,0,0,206,43.1c-.13-19.32-15.4-34.88-34.11-34.75A33.24,33.24,0,0,0,148,18.74a33.42,33.42,0,0,0-60.6,1.18A33.31,33.31,0,0,0,61.94,8.26c-18.72.13-33.79,15.9-33.66,35.22a36.31,36.31,0,0,0,.37,4.93C12.4,50.6-.11,65,0,82.37c.12,18.78,15,33.92,33.17,33.79a32.2,32.2,0,0,0,21-8A33.85,33.85,0,0,0,85.3,128.81h.6a33.65,33.65,0,0,0,28.6-16.59,33.43,33.43,0,0,0,60.5-4.4,32.25,32.25,0,0,0,23.28,9.72c18.2-.12,32.85-15.45,32.73-34.24C230.91,67.15,219.93,53.72,205.3,50.33Z"/></g></g></svg>