<svg xmlns="http://www.w3.org/2000/svg" viewBox="0 0 208.76 147.18"><defs><style>.cls-1{fill:#99e0ff;}</style></defs><g id="レイヤー_2" data-name="レイヤー 2"><g id="レイヤー_1-2" data-name="レイヤー 1"><path class="cls-1" d="M188.07,73.06a33.78,33.78,0,0,0-39.76-31.68c-4.55-12.32-17.32-21.2-32.38-21.2a37.41,37.41,0,0,0-8.74,1A39.05,39.05,0,0,0,33.4,38.61a36.22,36.22,0,0,0-18.16,65.64,29.46,29.46,0,0,0-.34,4.53,30.27,30.27,0,0,0,52.2,20.87,30.16,30.16,0,0,0,51.37,5.66,28.82,28.82,0,0,0,50.75-8.22,28.65,28.65,0,1,0,18.85-54Z"/></g></g></svg>