<svg xmlns="http://www.w3.org/2000/svg" viewBox="0 0 225.36 225.36"><defs><style>.cls-1{fill:#ea5514;}</style></defs><g id="レイヤー_2" data-name="レイヤー 2"><g id="レイヤー_1-2" data-name="レイヤー 1"><circle class="cls-1" cx="112.68" cy="112.68" r="47.56" transform="translate(-17.11 205.13) rotate(-80.46)"/><polygon class="cls-1" points="57.19 115.65 38.13 111.74 39.47 111.74 21.76 119.83 20.92 120.21 19.07 119.83 0 115.92 4.01 103.55 21.75 111.59 19.06 111.59 38.12 107.62 39.04 107.43 39.46 107.62 57.19 115.65"/><polygon class="cls-1" points="57.19 115.65 38.13 111.74 39.47 111.74 21.76 119.83 20.92 120.21 19.07 119.83 0 115.92 4.01 103.55 21.75 111.59 19.06 111.59 38.12 107.62 39.04 107.43 39.46 107.62 57.19 115.65"/><polygon class="cls-1" points="66.12 143 47.65 149.15 48.81 148.47 37.52 164.33 36.98 165.08 35.19 165.68 16.72 171.83 14.01 159.11 33.39 157.2 31.06 158.55 45.58 145.58 46.29 144.96 46.74 144.91 66.12 143"/><polygon class="cls-1" points="87.52 162.22 74.6 176.78 75.27 175.62 73.42 195 73.33 195.91 72.08 197.32 59.16 211.89 50.45 202.23 66.28 190.89 64.94 193.22 71.03 174.73 71.32 173.83 71.7 173.56 87.52 162.22"/><polygon class="cls-1" points="115.67 168.16 111.76 187.23 111.75 185.89 119.84 203.6 120.23 204.44 119.85 206.28 115.94 225.36 103.57 221.34 111.6 203.61 111.61 206.3 107.64 187.24 107.44 186.31 107.64 185.9 115.67 168.16"/><polygon class="cls-1" points="143.01 159.23 149.16 177.7 148.49 176.54 164.35 187.83 165.1 188.37 165.69 190.16 171.85 208.63 159.13 211.34 157.22 191.96 158.57 194.29 145.6 179.77 144.97 179.06 144.92 178.61 143.01 159.23"/><polygon class="cls-1" points="162.23 137.83 176.79 150.75 175.62 150.08 195 151.92 195.92 152.01 197.33 153.26 211.9 166.18 202.24 174.89 190.9 159.07 193.23 160.41 174.74 154.32 173.84 154.02 173.57 153.65 162.23 137.83"/><polygon class="cls-1" points="168.16 109.68 187.23 113.59 185.89 113.59 203.6 105.5 204.44 105.11 206.28 105.49 225.36 109.4 221.35 121.77 203.61 113.74 206.3 113.73 187.24 117.71 186.32 117.9 185.9 117.71 168.16 109.68"/><polygon class="cls-1" points="159.23 82.34 177.7 76.18 176.54 76.86 187.82 61 188.36 60.24 190.15 59.65 208.62 53.49 211.33 66.21 191.96 68.13 194.28 66.78 179.76 79.75 179.06 80.38 178.6 80.42 159.23 82.34"/><polygon class="cls-1" points="137.82 63.13 150.74 48.56 150.07 49.73 151.91 30.35 152 29.43 153.25 28.02 166.17 13.45 174.87 23.11 159.06 34.45 160.39 32.12 154.31 50.62 154.01 51.51 153.64 51.78 137.82 63.13"/><polygon class="cls-1" points="109.67 57.19 113.58 38.12 113.58 39.47 105.48 21.76 105.1 20.92 105.48 19.07 109.38 0 121.75 4.01 113.72 21.74 113.72 19.06 117.7 38.11 117.89 39.04 117.7 39.46 109.67 57.19"/><polygon class="cls-1" points="82.33 66.13 76.17 47.66 76.85 48.83 60.99 37.54 60.23 37.01 59.64 35.22 53.48 16.75 66.19 14.03 68.11 33.41 66.76 31.08 79.74 45.6 80.37 46.3 80.41 46.76 82.33 66.13"/><polygon class="cls-1" points="63.12 87.54 48.56 74.63 49.72 75.3 30.34 73.46 29.42 73.37 28.01 72.12 13.44 59.2 23.1 50.5 34.45 66.31 32.12 64.98 50.61 71.06 51.51 71.35 51.77 71.73 63.12 87.54"/></g></g></svg>