<svg xmlns="http://www.w3.org/2000/svg" viewBox="0 0 228.44 228.44"><defs><style>.cls-1{fill:#ea5514;}.cls-2{fill:#ea4214;}</style></defs><g id="レイヤー_2" data-name="レイヤー 2"><g id="レイヤー_1-2" data-name="レイヤー 1"><circle class="cls-1" cx="114.22" cy="114.22" r="47.56" transform="translate(-17.35 207.94) rotate(-80.46)"/><polygon class="cls-2" points="58.74 120.2 39.15 110.04 41.52 110.04 24.33 123.88 22.47 125.37 19.59 123.88 0 113.73 7.09 102.83 24.32 116.62 19.58 116.63 39.14 106.41 40.58 105.66 41.51 106.41 58.74 120.2"/><polygon class="cls-2" points="58.74 120.2 39.15 110.04 41.52 110.04 24.33 123.88 22.47 125.37 19.59 123.88 0 113.73 7.09 102.83 24.32 116.62 19.58 116.63 39.14 106.41 40.58 105.66 41.51 106.41 58.74 120.2"/><polygon class="cls-2" points="69.16 147.14 47.12 148.14 49.17 146.95 41.2 167.53 40.34 169.76 37.1 169.91 15.06 170.91 15.75 157.93 37.56 161.25 33.47 163.63 45.3 145 46.17 143.63 47.35 143.81 69.16 147.14"/><polygon class="cls-2" points="91.66 165.26 73.07 177.15 74.25 175.1 77.64 196.9 78.01 199.26 75.28 201.01 56.69 212.9 50.8 201.31 71.35 193.28 68.99 197.39 69.93 175.34 70 173.72 71.11 173.29 91.66 165.26"/><polygon class="cls-2" points="120.21 169.7 110.05 189.29 110.05 186.93 123.89 204.11 125.39 205.97 123.9 208.85 113.75 228.44 102.85 221.35 116.63 204.12 116.64 208.86 106.42 189.3 105.67 187.86 106.42 186.93 120.21 169.7"/><polygon class="cls-2" points="147.15 159.27 148.15 181.32 146.96 179.27 167.54 187.23 169.77 188.09 169.92 191.33 170.93 213.37 157.94 212.69 161.27 190.87 163.64 194.97 145.01 183.14 143.64 182.27 143.82 181.09 147.15 159.27"/><polygon class="cls-2" points="165.26 136.77 177.16 155.36 175.1 154.18 196.91 150.78 199.27 150.41 201.01 153.14 212.91 171.73 201.32 177.63 193.29 157.07 197.4 159.43 175.35 158.5 173.73 158.44 173.29 157.32 165.26 136.77"/><polygon class="cls-2" points="169.7 108.22 189.29 118.38 186.93 118.38 204.11 104.53 205.97 103.03 208.84 104.53 228.44 114.68 221.36 125.58 204.12 111.79 208.86 111.78 189.3 122 187.86 122.75 186.93 122.01 169.7 108.22"/><polygon class="cls-2" points="159.27 81.28 181.31 80.28 179.26 81.47 187.22 60.88 188.08 58.66 191.32 58.51 213.36 57.5 212.68 70.48 190.86 67.16 194.96 64.79 183.13 83.42 182.26 84.78 181.08 84.61 159.27 81.28"/><polygon class="cls-2" points="136.76 63.17 155.35 51.28 154.17 53.33 150.77 31.53 150.4 29.17 153.13 27.42 171.71 15.52 177.61 27.11 157.06 35.14 159.42 31.04 158.49 53.09 158.43 54.7 157.31 55.14 136.76 63.17"/><polygon class="cls-2" points="108.22 58.74 118.36 39.15 118.37 41.52 104.52 24.33 103.02 22.47 104.51 19.6 114.66 0 125.56 7.08 111.78 24.32 111.77 19.58 121.99 39.14 122.74 40.58 122 41.51 108.22 58.74"/><polygon class="cls-2" points="81.28 69.18 80.27 47.14 81.45 49.18 60.87 41.23 58.64 40.37 58.49 37.13 57.48 15.09 70.46 15.77 67.15 37.59 64.77 33.49 83.41 45.32 84.77 46.18 84.59 47.36 81.28 69.18"/><polygon class="cls-2" points="63.17 91.69 51.27 73.1 53.32 74.28 31.52 77.69 29.16 78.06 27.41 75.33 15.51 56.74 27.1 50.84 35.14 71.39 31.03 69.04 53.08 69.96 54.7 70.03 55.13 71.14 63.17 91.69"/></g></g></svg>