<svg xmlns="http://www.w3.org/2000/svg" viewBox="0 0 179.03 147.44"><defs><style>.cls-1{fill:#5caeff;}.cls-2{fill:#3180f4;}.cls-3{fill:#99e0ff;}.cls-4{fill:#f0b2c5;}</style></defs><g id="レイヤー_2" data-name="レイヤー 2"><g id="レイヤー_1-2" data-name="レイヤー 1"><path class="cls-1" d="M152.56,67.44a1.09,1.09,0,0,0-2-.87l-27.71,64,2,.87Z"/><path class="cls-2" d="M122.13,142.31l4-9.18c.26-.59-.22-1.22-.81-1.48l-.43-.18-2.13-.93-.18-.07a1.11,1.11,0,0,0-1.51.55L117.32,140s-.72,3.62-4.92,1.8a3.93,3.93,0,0,1-2.73-3.88,2.62,2.62,0,0,0-1.48-2.52l-.07,0a2.58,2.58,0,0,0-3.51,2c-.41,2.89.34,6.76,5.77,9.11C118.81,150.11,122.13,142.31,122.13,142.31Z"/><path class="cls-1" d="M150.27,69.64a57,57,0,0,1,4.32,32c-2.65,16.89-10.3,23.66-10.3,23.66s9.44-6,18.36-2.19,11.17,15,11.17,15C185.55,111,177.36,81.37,150.27,69.64Z"/><path class="cls-2" d="M154.59,101.65a57,57,0,0,0-4.32-32s-17.07,4.88-27,18.46c-9.68,13.27-10,23.78-10,23.78s11.94-5,19.18-1.83,11.83,15.26,11.83,15.26S151.94,118.54,154.59,101.65Z"/><path class="cls-1" d="M123.3,88.1c9.9-13.58,27-18.46,27-18.46-27.1-11.73-54.31,2.57-66,29.66,0,0,10-5.8,17.81-2.42s11.24,15,11.24,15S113.62,101.37,123.3,88.1Z"/><path class="cls-3" d="M99.49,38.65a17.87,17.87,0,0,0-21-16.76c-2.4-6.52-9.16-11.22-17.12-11.22a20.1,20.1,0,0,0-4.63.55,20.66,20.66,0,0,0-39,9.21A19.16,19.16,0,0,0,8.06,55.15a15.73,15.73,0,0,0-.18,2.39,16,16,0,0,0,27.61,11,16,16,0,0,0,27.18,3,15.24,15.24,0,0,0,26.84-4.35,15.16,15.16,0,1,0,10-28.58Z"/><rect class="cls-4" x="31.43" y="81.02" width="20" height="45" rx="10"/><rect class="cls-4" x="43.93" y="93.52" width="20" height="45" rx="10" transform="translate(-62.09 169.95) rotate(-90)"/><polygon class="cls-4" points="84.43 116.08 60.43 91.08 60.43 141.08 84.43 116.08"/></g></g></svg>