<svg xmlns="http://www.w3.org/2000/svg" viewBox="0 0 239.29 178.76"><defs><style>.cls-1{fill:#fff100;}.cls-2{fill:#99e0ff;}</style></defs><g id="レイヤー_2" data-name="レイヤー 2"><g id="レイヤー_1-2" data-name="レイヤー 1"><path class="cls-1" d="M77.63,0A71.35,71.35,0,0,1,85.3,57.37,71.56,71.56,0,0,1,0,107,70,70,0,1,0,77.63,0Z"/><path class="cls-2" d="M220.86,112.77a30.06,30.06,0,0,0-35.4-28.2c-4.05-11-15.42-18.88-28.83-18.88a33.23,33.23,0,0,0-7.79.92A34.77,34.77,0,0,0,83.14,82.1,32.25,32.25,0,0,0,67,140.54a27,27,0,0,0,46.18,22.61,26.86,26.86,0,0,0,45.74,5,25.66,25.66,0,0,0,45.19-7.32,25.51,25.51,0,1,0,16.78-48.11Z"/></g></g></svg>