<svg xmlns="http://www.w3.org/2000/svg" viewBox="0 0 209.24 166.2"><defs><style>.cls-1{fill:#ea5514;}.cls-2{fill:#99e0ff;}</style></defs><g id="レイヤー_2" data-name="レイヤー 2"><g id="レイヤー_1-2" data-name="レイヤー 1"><polygon class="cls-1" points="43.89 26.16 38.64 29.18 26.84 11.6 34.64 7.12 43.89 26.16"/><polygon class="cls-1" points="27.69 41.53 24.85 46.88 5.5 38.26 9.72 30.32 27.69 41.53"/><polygon class="cls-1" points="21.13 60.84 21.13 66.9 0 68.37 0 59.38 21.13 60.84"/><polygon class="cls-1" points="24.7 81.92 27.65 87.2 9.93 98.8 5.54 90.95 24.7 81.92"/><polygon class="cls-1" points="38.9 99.44 44.1 102.55 34.51 121.43 26.8 116.82 38.9 99.44"/><polygon class="cls-1" points="61.32 107.43 67.38 107.43 68.84 128.56 59.85 128.56 61.32 107.43"/><polygon class="cls-1" points="84.74 102.7 90.1 99.89 101.22 117.91 93.26 122.09 84.74 102.7"/><polygon class="cls-1" points="101.08 87.96 103.98 82.64 123.24 91.45 118.94 99.35 101.08 87.96"/><polygon class="cls-1" points="108.56 66.96 108.56 60.91 129.69 59.44 129.69 68.43 108.56 66.96"/><polygon class="cls-1" points="104.56 46.38 101.65 41.07 119.47 29.63 123.79 37.52 104.56 46.38"/><polygon class="cls-1" points="90.07 29.1 84.92 25.91 94.8 7.18 102.44 11.91 90.07 29.1"/><polygon class="cls-1" points="67.49 21.13 61.44 21.13 59.97 0 68.96 0 67.49 21.13"/><circle class="cls-1" cx="64.2" cy="63.89" r="36.91" transform="translate(-10.86 114.58) rotate(-78.89)"/><path class="cls-2" d="M192.56,106.48a27.21,27.21,0,0,0-32-25.53c-3.66-9.92-14-17.08-26.08-17.08a30.17,30.17,0,0,0-7,.83,31.46,31.46,0,0,0-59.45,14A29.19,29.19,0,0,0,53.3,131.61a24.39,24.39,0,0,0,41.79,20.46,24.3,24.3,0,0,0,41.39,4.57,23.24,23.24,0,0,0,40.9-6.63,22.82,22.82,0,0,0,8.77,1.73,23.08,23.08,0,0,0,6.41-45.26Z"/></g></g></svg>