<svg xmlns="http://www.w3.org/2000/svg" viewBox="0 0 185.85 170.67"><defs><style>.cls-1{fill:#9df4f2;}.cls-2{fill:#e83828;}.cls-3{fill:#9fa0a0;}</style></defs><g id="レイヤー_2" data-name="レイヤー 2"><g id="レイヤー_1-2" data-name="レイヤー 1"><circle class="cls-1" cx="44.89" cy="56.58" r="35.85" transform="translate(-20.37 87.54) rotate(-76.95)"/><ellipse class="cls-1" cx="44.8" cy="107.01" rx="44.8" ry="41.11"/><path class="cls-2" d="M43.76,20.76A52.49,52.49,0,0,1,30.18,34.17a52.7,52.7,0,0,1-17.78,7L1.66,13.7,22.75,0Z"/><path class="cls-3" d="M168,121.33a20.3,20.3,0,0,0,.48-4.51c-.09-12-10.66-21.75-23.62-21.67a24.28,24.28,0,0,0-16.54,6.48,24.29,24.29,0,0,0-42,.73,24.27,24.27,0,0,0-17.64-7.27c-13,.08-23.4,9.92-23.31,22a21,21,0,0,0,.26,3.08c-11.26,1.36-19.92,10.34-19.84,21.17.08,11.72,10.36,21.16,23,21.08a23.68,23.68,0,0,0,14.54-5,23.62,23.62,0,0,0,21.56,12.88h.42a23.86,23.86,0,0,0,19.8-10.35,23.85,23.85,0,0,0,20.37,10.74c9.72-.06,18-5.62,21.53-13.48a23.67,23.67,0,0,0,16.12,6.06c12.61-.07,22.75-9.64,22.67-21.36C185.78,131.82,178.18,123.45,168,121.33Z"/></g></g></svg>