<svg xmlns="http://www.w3.org/2000/svg" viewBox="0 0 250.39 166.43"><defs><style>.cls-1{fill:#5caeff;}.cls-2{fill:#3180f4;}.cls-3{fill:#9fa0a0;}</style></defs><g id="レイヤー_2" data-name="レイヤー 2"><g id="レイヤー_1-2" data-name="レイヤー 1"><path class="cls-1" d="M110.6,4.8a1.53,1.53,0,0,0-.87-2.09,1.68,1.68,0,0,0-2.27.63L59.76,96.05l3.15,1.46Z"/><path class="cls-2" d="M58,113.4l6.84-13.31c.44-.85-.28-1.83-1.21-2.26l-.67-.31L59.6,96l-.29-.13a1.8,1.8,0,0,0-2.43.7l-6.44,12.93s-1.34,5.32-7.93,2.27c-3.68-1.7-4.27-4.21-4.14-6a3.93,3.93,0,0,0-2.21-3.86l-.11,0a4.07,4.07,0,0,0-5.71,2.72c-.81,4.27.17,10.07,8.69,14C52.24,124.7,58,113.4,58,113.4Z"/><path class="cls-1" d="M106.82,7.87a80.31,80.31,0,0,1,5.11,47.89C106.78,80.61,94.22,90,94.22,90s15.36-8.18,29.35-1.69,17,23.16,17,23.16C160.72,72.24,149.32,27.57,106.82,7.87Z"/><path class="cls-2" d="M111.93,55.76a80.31,80.31,0,0,0-5.11-47.89S79.36,13.68,62.84,33C46.69,51.9,45.56,67.46,45.56,67.46s19.3-6.35,30.65-1.09S94.22,90,94.22,90,106.78,80.61,111.93,55.76Z"/><path class="cls-1" d="M62.84,33c16.52-19.33,44-25.14,44-25.14C64.32-11.83,20.19,7.11,0,46.35c0,0,16.23-7.78,28.49-2.1S45.56,67.46,45.56,67.46,46.69,51.9,62.84,33Z"/><path class="cls-3" d="M226.71,100.82a27,27,0,0,0,.62-6c-.11-16-14.18-28.93-31.41-28.83a32.37,32.37,0,0,0-22,8.62c-5.25-9.3-15.77-15.62-27.84-15.54-12.35.07-23,6.81-28,16.52a32.19,32.19,0,0,0-23.45-9.67c-17.24.11-31.12,13.18-31,29.21a27.77,27.77,0,0,0,.34,4.1C49,101,37.52,113,37.62,127.39c.11,15.59,13.79,28.14,30.55,28a31.56,31.56,0,0,0,19.34-6.63C92.43,159,103.44,166,116.18,165.92h.56a31.71,31.71,0,0,0,26.33-13.77,31.71,31.71,0,0,0,27.09,14.28c12.94-.08,24-7.47,28.64-17.93a31.44,31.44,0,0,0,21.44,8.07c16.76-.1,30.26-12.82,30.15-28.41C250.29,114.77,240.18,103.63,226.71,100.82Z"/></g></g></svg>