<svg xmlns="http://www.w3.org/2000/svg" viewBox="0 0 172.37 170.96"><defs><style>.cls-1{fill:#99e0ff;}.cls-2{fill:#f0b2c5;}.cls-3{fill:#9df4f2;}.cls-4{fill:#e83828;}</style></defs><g id="レイヤー_2" data-name="レイヤー 2"><g id="レイヤー_1-2" data-name="レイヤー 1"><path class="cls-1" d="M99.49,38.65a17.87,17.87,0,0,0-21-16.76c-2.4-6.52-9.16-11.22-17.12-11.22a20.1,20.1,0,0,0-4.63.55,20.66,20.66,0,0,0-39,9.21A19.16,19.16,0,0,0,8.06,55.15a15.73,15.73,0,0,0-.18,2.39,16,16,0,0,0,27.61,11,16,16,0,0,0,27.18,3,15.24,15.24,0,0,0,26.84-4.35,15.16,15.16,0,1,0,10-28.58Z"/><rect class="cls-2" x="43.43" y="86.02" width="20" height="45" rx="10"/><rect class="cls-2" x="55.93" y="98.52" width="20" height="45" rx="10" transform="translate(-55.09 186.95) rotate(-90)"/><polygon class="cls-2" points="96.43 121.08 72.43 96.08 72.43 146.08 96.43 121.08"/><circle class="cls-3" cx="138.81" cy="102.25" r="26.92" transform="translate(7.86 214.38) rotate(-76.95)"/><ellipse class="cls-3" cx="138.74" cy="140.1" rx="33.63" ry="30.86"/><path class="cls-4" d="M138,75.35a39.54,39.54,0,0,1-10.2,10.07,39.48,39.48,0,0,1-13.35,5.23l-8.06-20.6,15.83-10.28Z"/></g></g></svg>