<svg xmlns="http://www.w3.org/2000/svg" viewBox="0 0 191.82 167.65"><defs><style>.cls-1{fill:#99e0ff;}.cls-2{fill:#f0b2c5;}.cls-3{fill:#ea5514;}</style></defs><g id="レイヤー_2" data-name="レイヤー 2"><g id="レイヤー_1-2" data-name="レイヤー 1"><path class="cls-1" d="M99.49,38.65a17.87,17.87,0,0,0-21-16.76c-2.4-6.52-9.16-11.22-17.12-11.22a20.1,20.1,0,0,0-4.63.55,20.66,20.66,0,0,0-39,9.21A19.16,19.16,0,0,0,8.06,55.15a15.73,15.73,0,0,0-.18,2.39,16,16,0,0,0,27.61,11,16,16,0,0,0,27.18,3,15.24,15.24,0,0,0,26.84-4.35,15.16,15.16,0,1,0,10-28.58Z"/><rect class="cls-2" x="31.43" y="81.02" width="20" height="45" rx="10"/><rect class="cls-2" x="43.93" y="93.52" width="20" height="45" rx="10" transform="translate(-62.09 169.95) rotate(-90)"/><polygon class="cls-2" points="84.43 116.08 60.43 91.08 60.43 141.08 84.43 116.08"/><polygon class="cls-3" points="124.28 87.06 120.15 89.43 110.86 75.59 117 72.06 124.28 87.06"/><polygon class="cls-3" points="111.53 99.15 109.29 103.36 94.07 96.58 97.39 90.33 111.53 99.15"/><polygon class="cls-3" points="106.36 114.35 106.36 119.12 89.73 120.28 89.73 113.2 106.36 114.35"/><polygon class="cls-3" points="109.17 130.94 111.5 135.1 97.55 144.23 94.1 138.06 109.17 130.94"/><polygon class="cls-3" points="120.36 144.74 124.45 147.18 116.9 162.05 110.83 158.41 120.36 144.74"/><polygon class="cls-3" points="138 151.03 142.77 151.03 143.93 167.65 136.85 167.65 138 151.03"/><polygon class="cls-3" points="156.44 147.3 160.66 145.09 169.41 159.27 163.14 162.56 156.44 147.3"/><polygon class="cls-3" points="169.3 135.7 171.58 131.51 186.74 138.45 183.35 144.66 169.3 135.7"/><polygon class="cls-3" points="175.19 119.17 175.19 114.4 191.82 113.25 191.82 120.33 175.19 119.17"/><polygon class="cls-3" points="172.04 102.97 169.75 98.79 183.78 89.78 187.18 95.99 172.04 102.97"/><polygon class="cls-3" points="160.63 89.36 156.58 86.86 164.35 72.11 170.37 75.84 160.63 89.36"/><polygon class="cls-3" points="142.86 83.09 138.09 83.09 136.94 66.46 144.02 66.46 142.86 83.09"/><circle class="cls-3" cx="140.27" cy="116.75" r="29.06" transform="translate(1.89 235.74) rotate(-80.46)"/></g></g></svg>