<svg xmlns="http://www.w3.org/2000/svg" viewBox="0 0 177 154.29"><defs><style>.cls-1{fill:#ea5514;}.cls-2{fill:#f0b2c5;}.cls-3{fill:#99e0ff;}.cls-4{fill:none;stroke:#99e0ff;stroke-linecap:round;stroke-miterlimit:10;stroke-width:1.39px;}</style></defs><g id="レイヤー_2" data-name="レイヤー 2"><g id="レイヤー_1-2" data-name="レイヤー 1"><polygon class="cls-1" points="117.89 83.75 114.27 85.83 106.14 73.71 111.51 70.62 117.89 83.75"/><polygon class="cls-1" points="106.72 94.33 104.76 98.02 91.44 92.08 94.34 86.61 106.72 94.33"/><polygon class="cls-1" points="102.2 107.64 102.2 111.81 87.64 112.82 87.64 106.63 102.2 107.64"/><polygon class="cls-1" points="104.66 122.16 106.7 125.8 94.49 133.79 91.47 128.39 104.66 122.16"/><polygon class="cls-1" points="114.45 134.23 118.03 136.38 111.42 149.39 106.11 146.21 114.45 134.23"/><polygon class="cls-1" points="129.9 139.74 134.07 139.74 135.08 154.29 128.88 154.29 129.9 139.74"/><polygon class="cls-1" points="146.03 136.48 149.72 134.54 157.38 146.96 151.9 149.84 146.03 136.48"/><polygon class="cls-1" points="157.29 126.32 159.29 122.66 172.56 128.73 169.59 134.17 157.29 126.32"/><polygon class="cls-1" points="162.44 111.86 162.44 107.68 177 106.67 177 112.87 162.44 111.86"/><polygon class="cls-1" points="159.69 97.68 157.68 94.02 169.96 86.14 172.94 91.57 159.69 97.68"/><polygon class="cls-1" points="149.7 85.77 146.16 83.57 152.96 70.66 158.23 73.93 149.7 85.77"/><polygon class="cls-1" points="134.15 80.27 129.97 80.27 128.96 65.72 135.16 65.72 134.15 80.27"/><circle class="cls-1" cx="131.88" cy="109.74" r="25.43" transform="translate(1.8 221.61) rotate(-80.46)"/><rect class="cls-2" x="27.73" y="79.07" width="20" height="45" rx="10"/><rect class="cls-2" x="40.23" y="91.57" width="20" height="45" rx="10" transform="translate(-63.84 164.3) rotate(-90)"/><polygon class="cls-2" points="80.73 114.13 56.73 89.13 56.73 139.13 80.73 114.13"/><path class="cls-3" d="M87.39,34A15.69,15.69,0,0,0,68.91,19.23c-2.11-5.73-8-9.85-15-9.85a17,17,0,0,0-4.07.48A18.13,18.13,0,0,0,33.66,0c-12.33,0-18,11.27-18.14,21.19C6.84,21.86,0,32.32,0,41.17c0,5.66,3.67,14.4,12.5,14.4-.1.69,69.4-.17,71.19-.17C91,55.4,97,53.16,97,45.81,97,39.74,92.94,35.55,87.39,34Z"/><line class="cls-4" x1="10.64" y1="58.36" x2="85.91" y2="58.36"/><line class="cls-4" x1="10.18" y1="62.31" x2="86.38" y2="62.31"/><line class="cls-4" x1="9.71" y1="66.26" x2="86.84" y2="66.26"/><line class="cls-4" x1="9.25" y1="70.21" x2="87.31" y2="70.21"/><line class="cls-4" x1="8.78" y1="74.16" x2="87.77" y2="74.16"/></g></g></svg>