<svg xmlns="http://www.w3.org/2000/svg" viewBox="0 0 208.76 161.11"><defs><style>.cls-1{fill:#99e0ff;}.cls-2{fill:none;stroke:#99e0ff;stroke-linecap:round;stroke-miterlimit:10;stroke-width:3px;}</style></defs><g id="レイヤー_2" data-name="レイヤー 2"><g id="レイヤー_1-2" data-name="レイヤー 1"><path class="cls-1" d="M188.07,73.06a33.78,33.78,0,0,0-39.76-31.68c-4.55-12.32-17.32-21.2-32.38-21.2a37.41,37.41,0,0,0-8.74,1A39.06,39.06,0,0,0,72.44,0c-26.53,0-38.81,24.25-39,45.61C14.71,47.05,0,69.55,0,88.61c0,12.18,7.91,31,26.91,31-.23,1.47,149.35-.37,153.2-.37,15.83,0,28.65-4.83,28.65-20.65C208.76,85.52,200,76.51,188.07,73.06Z"/><line class="cls-2" x1="22.91" y1="125.61" x2="184.91" y2="125.61"/><line class="cls-2" x1="21.91" y1="134.11" x2="185.91" y2="134.11"/><line class="cls-2" x1="20.91" y1="142.61" x2="186.91" y2="142.61"/><line class="cls-2" x1="19.91" y1="151.11" x2="187.91" y2="151.11"/><line class="cls-2" x1="18.91" y1="159.61" x2="188.91" y2="159.61"/></g></g></svg>