<svg xmlns="http://www.w3.org/2000/svg" viewBox="0 0 185.88 185.22"><defs><style>.cls-1{fill:#99e0ff;}.cls-2{fill:#fff100;}</style></defs><g id="レイヤー_2" data-name="レイヤー 2"><g id="レイヤー_1-2" data-name="レイヤー 1"><path class="cls-1" d="M167.46,65.05a30.07,30.07,0,0,0-35.41-28.2C128,25.88,116.63,18,103.23,18a33.1,33.1,0,0,0-7.79.92,34.77,34.77,0,0,0-65.7,15.49A32.26,32.26,0,0,0,13.57,92.83a27,27,0,0,0,46.17,22.61,26.85,26.85,0,0,0,45.74,5,25.67,25.67,0,0,0,45.2-7.32,25.51,25.51,0,1,0,16.78-48.11Z"/><path class="cls-2" d="M116.69,46.24a71.57,71.57,0,0,1-63.39,116,70,70,0,1,0,63.39-116Z"/></g></g></svg>