<svg xmlns="http://www.w3.org/2000/svg" viewBox="0 0 201.95 171.24"><defs><style>.cls-1{fill:#3180f4;}.cls-2{fill:#5caeff;}</style></defs><g id="レイヤー_2" data-name="レイヤー 2"><g id="レイヤー_1-2" data-name="レイヤー 1"><path class="cls-1" d="M159.71,128.84c0,4.47-2.6,6.65-5.82,6.65s-5.83-2.18-5.83-6.65,5.83-13,5.83-13S159.71,124.36,159.71,128.84Z"/><path class="cls-1" d="M53,135.46c0,4.47-2.61,6.65-5.83,6.65s-5.82-2.18-5.82-6.65,5.82-13,5.82-13S53,131,53,135.46Z"/><path class="cls-1" d="M202,73.18c0,4.48-2.61,6.66-5.83,6.66s-5.82-2.18-5.82-6.66,5.82-13,5.82-13S202,68.71,202,73.18Z"/><path class="cls-1" d="M11.65,58.5c0,4.47-2.6,6.65-5.82,6.65S0,63,0,58.5s5.83-13,5.83-13S11.65,54,11.65,58.5Z"/><path class="cls-1" d="M169,25.32c0,4.48-2.61,6.66-5.83,6.66s-5.83-2.18-5.83-6.66,5.83-13,5.83-13S169,20.85,169,25.32Z"/><path class="cls-1" d="M50.88,13c0,4.47-2.61,6.65-5.82,6.65S39.23,17.48,39.23,13,45.06,0,45.06,0,50.88,8.54,50.88,13Z"/><path class="cls-2" d="M102.31,19.65a2,2,0,0,0-4,0V138.37h4Z"/><path class="cls-1" d="M105.31,156.85v-17c0-1.09-1.19-1.48-2.28-1.48H98a1.78,1.78,0,0,0-2,1.75l.2,16.35s1.33,6.1-6.45,6.1c-4.33,0-6.13-2.34-6.87-4.24a4.46,4.46,0,0,0-4-3h-.12a4.39,4.39,0,0,0-4.11,5.56c1.32,4.79,5.11,10.31,15.15,10.31C105.38,171.24,105.31,156.85,105.31,156.85Z"/><path class="cls-2" d="M100.1,24.62s20.55,16.91,28.33,47c7.28,28.1-.08,43.81-.08,43.81S139,99.61,155.47,99.61,183,115.4,183,115.4C183,65.26,150.24,24.62,100.1,24.62Z"/><path class="cls-1" d="M128.43,71.59c-7.78-30.06-28.33-47-28.33-47s-23.3,19.13-29.57,47C64.4,98.8,71,115.4,71,115.4S86.22,99.61,99.62,99.61s28.73,15.79,28.73,15.79S135.71,99.69,128.43,71.59Z"/><path class="cls-2" d="M70.53,71.59c6.27-27.84,29.57-47,29.57-47C50,24.62,17.22,65.26,17.22,115.4c0,0,11.65-15.79,26.11-15.79S71,115.4,71,115.4,64.4,98.8,70.53,71.59Z"/></g></g></svg>