<svg xmlns="http://www.w3.org/2000/svg" viewBox="0 0 180.27 164.35"><defs><style>.cls-1{fill:#ea5514;}.cls-2{fill:#5caeff;}.cls-3{fill:#3180f4;}.cls-4{fill:#f0b2c5;}</style></defs><g id="レイヤー_2" data-name="レイヤー 2"><g id="レイヤー_1-2" data-name="レイヤー 1"><polygon class="cls-1" points="112.74 83.75 108.6 86.13 99.31 72.28 105.45 68.76 112.74 83.75"/><polygon class="cls-1" points="99.98 95.85 97.74 100.06 82.52 93.27 85.84 87.02 99.98 95.85"/><polygon class="cls-1" points="94.81 111.05 94.81 115.82 78.19 116.97 78.19 109.89 94.81 111.05"/><polygon class="cls-1" points="97.63 127.64 99.95 131.8 86.01 140.93 82.55 134.75 97.63 127.64"/><polygon class="cls-1" points="108.81 141.43 112.9 143.88 105.35 158.74 99.28 155.11 108.81 141.43"/><polygon class="cls-1" points="126.46 147.72 131.22 147.72 132.38 164.35 125.3 164.35 126.46 147.72"/><polygon class="cls-1" points="144.89 144 149.11 141.78 157.86 155.97 151.6 159.26 144.89 144"/><polygon class="cls-1" points="157.75 132.39 160.03 128.21 175.19 135.14 171.81 141.36 157.75 132.39"/><polygon class="cls-1" points="163.64 115.87 163.64 111.1 180.27 109.94 180.27 117.02 163.64 115.87"/><polygon class="cls-1" points="160.49 99.67 158.2 95.49 172.23 86.48 175.63 92.69 160.49 99.67"/><polygon class="cls-1" points="149.09 86.06 145.03 83.55 152.81 68.81 158.82 72.53 149.09 86.06"/><polygon class="cls-1" points="131.31 79.78 126.55 79.78 125.39 63.16 132.47 63.16 131.31 79.78"/><circle class="cls-1" cx="128.72" cy="113.45" r="29.06" transform="translate(-4.49 221.59) rotate(-80.46)"/><path class="cls-2" d="M68.33,1.93A1,1,0,0,0,67.74.56a1,1,0,0,0-1.41.51l-27.72,64,2,.87Z"/><path class="cls-3" d="M37.9,76.81l4-9.19a1.21,1.21,0,0,0-.81-1.47L40.64,66,38.51,65,38.33,65a1.11,1.11,0,0,0-1.51.56l-3.74,8.92s-.71,3.62-4.91,1.8a3.91,3.91,0,0,1-2.73-3.88A2.63,2.63,0,0,0,24,69.85l-.07,0a2.56,2.56,0,0,0-3.51,2c-.41,2.9.34,6.76,5.77,9.11C34.57,84.61,37.9,76.81,37.9,76.81Z"/><path class="cls-2" d="M66,4.13a57,57,0,0,1,4.33,32C67.71,53,60.06,59.8,60.06,59.8s9.43-6,18.35-2.19,11.18,15,11.18,15C101.32,45.49,93.13,15.86,66,4.13Z"/><path class="cls-3" d="M70.36,36.14A57,57,0,0,0,66,4.13S49,9,39.06,22.59C29.38,35.87,29,46.37,29,46.37s12-5,19.19-1.82S60.06,59.8,60.06,59.8,67.71,53,70.36,36.14Z"/><path class="cls-2" d="M39.06,22.59C49,9,66,4.13,66,4.13,38.94-7.6,11.73,6.7,0,33.8c0,0,10-5.81,17.81-2.42S29,46.37,29,46.37,29.38,35.87,39.06,22.59Z"/><rect class="cls-4" x="22.2" y="85.51" width="20" height="45" rx="10"/><rect class="cls-4" x="34.7" y="98.01" width="20" height="45" rx="10" transform="translate(-75.81 165.21) rotate(-90)"/><polygon class="cls-4" points="75.2 120.57 51.2 95.57 51.2 145.57 75.2 120.57"/></g></g></svg>