<svg xmlns="http://www.w3.org/2000/svg" viewBox="0 0 219.29 168.25"><defs><style>.cls-1{fill:#9fa0a0;}.cls-2{fill:#5caeff;}.cls-3{fill:#3180f4;}</style></defs><g id="レイヤー_2" data-name="レイヤー 2"><g id="レイヤー_1-2" data-name="レイヤー 1"><path class="cls-1" d="M188.91,44.86a31.92,31.92,0,0,0,.63-6.45A31.18,31.18,0,0,0,136.18,16.7a31.18,31.18,0,0,0-55.75,1.05A31.18,31.18,0,0,0,26,38.75a30.48,30.48,0,0,0,.35,4.4A30.31,30.31,0,1,0,49.85,96.39a31.15,31.15,0,0,0,28.64,18.4h.56A31.14,31.14,0,0,0,105.36,100,31.18,31.18,0,0,0,161,96.08a30.32,30.32,0,1,0,27.88-51.22Z"/><path class="cls-2" d="M176,37.25a1.79,1.79,0,0,0-3.28-1.42L127.29,140.66l3.28,1.42Z"/><path class="cls-3" d="M126.12,159.86l6.52-15.05a2,2,0,0,0-1.33-2.41l-.7-.31-3.49-1.51-.3-.13a1.82,1.82,0,0,0-2.47.92L118.23,156s-1.16,5.93-8,3c-3.83-1.66-4.54-4.38-4.47-6.35a4.28,4.28,0,0,0-2.42-4.12l-.11-.05a4.21,4.21,0,0,0-5.75,3.33c-.67,4.74.56,11.07,9.45,14.91C120.67,172.63,126.12,159.86,126.12,159.86Z"/><path class="cls-2" d="M172.19,40.85s11.71,22.84,7.08,52.42C174.94,120.92,162.41,132,162.41,132s15.45-9.9,30.05-3.57,18.3,24.51,18.3,24.51C230,108.57,216.56,60.05,172.19,40.85Z"/><path class="cls-3" d="M179.27,93.27c4.63-29.58-7.08-52.42-7.08-52.42s-27.95,8-44.16,30.23C112.18,92.81,111.62,110,111.62,110s19.55-8.13,31.41-3,19.38,25,19.38,25S174.94,120.92,179.27,93.27Z"/><path class="cls-2" d="M128,71.08c16.21-22.23,44.16-30.23,44.16-30.23C127.82,21.64,83.27,45.06,64.06,89.43c0,0,16.36-9.51,29.16-4S111.62,110,111.62,110,112.18,92.81,128,71.08Z"/></g></g></svg>