<svg xmlns="http://www.w3.org/2000/svg" viewBox="0 0 172.06 173.37"><defs><style>.cls-1{fill:#ea5514;}.cls-2{fill:#5caeff;}.cls-3{fill:#3180f4;}</style></defs><g id="レイヤー_2" data-name="レイヤー 2"><g id="レイヤー_1-2" data-name="レイヤー 1"><polygon class="cls-1" points="39.94 23.81 35.16 26.55 24.43 10.55 31.52 6.48 39.94 23.81"/><polygon class="cls-1" points="25.2 37.79 22.61 42.66 5.01 34.81 8.85 27.59 25.2 37.79"/><polygon class="cls-1" points="19.22 55.37 19.22 60.88 0 62.21 0 54.03 19.22 55.37"/><polygon class="cls-1" points="22.47 74.54 25.16 79.35 9.04 89.9 5.04 82.77 22.47 74.54"/><polygon class="cls-1" points="35.4 90.49 40.13 93.32 31.41 110.5 24.39 106.3 35.4 90.49"/><polygon class="cls-1" points="55.8 97.76 61.31 97.76 62.65 116.98 54.47 116.98 55.8 97.76"/><polygon class="cls-1" points="77.11 93.45 81.99 90.89 92.11 107.29 84.86 111.09 77.11 93.45"/><polygon class="cls-1" points="91.98 80.04 94.62 75.2 112.14 83.22 108.23 90.4 91.98 80.04"/><polygon class="cls-1" points="98.79 60.93 98.79 55.42 118.01 54.09 118.01 62.27 98.79 60.93"/><polygon class="cls-1" points="95.15 42.21 92.5 37.38 108.71 26.96 112.65 34.14 95.15 42.21"/><polygon class="cls-1" points="81.96 26.48 77.28 23.58 86.26 6.53 93.22 10.84 81.96 26.48"/><polygon class="cls-1" points="61.42 19.22 55.9 19.22 54.57 0 62.75 0 61.42 19.22"/><circle class="cls-1" cx="58.42" cy="58.14" r="33.59" transform="translate(-6.61 7.5) rotate(-6.95)"/><path class="cls-2" d="M137,67.44a1.45,1.45,0,0,0-2.66-1.15l-36.7,84.77,2.66,1.15Z"/><path class="cls-3" d="M96.72,166.59,102,154.42a1.6,1.6,0,0,0-1.07-1.95l-.57-.24L97.53,151l-.24-.1a1.47,1.47,0,0,0-2,.74l-5,11.81s-.94,4.8-6.51,2.39c-3.1-1.34-3.67-3.54-3.62-5.14a3.46,3.46,0,0,0-1.95-3.33l-.09,0A3.4,3.4,0,0,0,73.52,160c-.55,3.84.45,9,7.64,12.07C92.31,176.92,96.72,166.59,96.72,166.59Z"/><path class="cls-2" d="M134,70.35a75.5,75.5,0,0,1,5.72,42.39c-3.5,22.36-13.63,31.33-13.63,31.33s12.49-8,24.3-2.9S165.17,161,165.17,161C180.7,125.11,169.86,85.88,134,70.35Z"/><path class="cls-3" d="M139.7,112.74A75.5,75.5,0,0,0,134,70.35S111.37,76.82,98.26,94.8C85.44,112.37,85,126.28,85,126.28s15.82-6.56,25.41-2.41,15.67,20.2,15.67,20.2S136.2,135.1,139.7,112.74Z"/><path class="cls-2" d="M98.26,94.8C111.37,76.82,134,70.35,134,70.35c-35.89-15.54-71.92,3.4-87.45,39.28,0,0,13.23-7.68,23.58-3.2S85,126.28,85,126.28,85.44,112.37,98.26,94.8Z"/></g></g></svg>