<svg xmlns="http://www.w3.org/2000/svg" viewBox="0 0 151.35 170.51"><defs><style>.cls-1{fill:#9df4f2;}.cls-2{fill:#e83828;}.cls-3{fill:#5caeff;}.cls-4{fill:#3180f4;}</style></defs><g id="レイヤー_2" data-name="レイヤー 2"><g id="レイヤー_1-2" data-name="レイヤー 1"><circle class="cls-1" cx="39.75" cy="50.09" r="31.74" transform="translate(-18.03 77.5) rotate(-76.95)"/><ellipse class="cls-1" cx="39.66" cy="94.73" rx="39.66" ry="36.4"/><path class="cls-2" d="M38.74,18.38a46.51,46.51,0,0,1-12,11.87A46.75,46.75,0,0,1,11,36.42L1.47,12.13,20.14,0Z"/><path class="cls-3" d="M116.3,64.57a1.45,1.45,0,0,0-2.65-1.14L77,148.2l2.65,1.15Z"/><path class="cls-4" d="M76,163.73l5.26-12.17a1.6,1.6,0,0,0-1.07-1.95l-.57-.25-2.82-1.22-.24-.1a1.46,1.46,0,0,0-2,.73l-4.94,11.82s-.95,4.8-6.52,2.39c-3.09-1.34-3.67-3.55-3.61-5.14a3.46,3.46,0,0,0-2-3.33l-.09,0a3.4,3.4,0,0,0-4.65,2.69c-.54,3.84.45,9,7.64,12.06C71.6,174.05,76,163.73,76,163.73Z"/><path class="cls-3" d="M113.26,67.48A75.42,75.42,0,0,1,119,109.87c-3.5,22.37-13.63,31.33-13.63,31.33s12.49-8,24.3-2.89,14.8,19.82,14.8,19.82C160,122.25,149.14,83,113.26,67.48Z"/><path class="cls-4" d="M119,109.87a75.42,75.42,0,0,0-5.72-42.39S90.66,74,77.54,91.94c-12.81,17.57-13.27,31.48-13.27,31.48s15.82-6.57,25.41-2.42,15.67,20.2,15.67,20.2S115.48,132.24,119,109.87Z"/><path class="cls-3" d="M77.54,91.94c13.12-18,35.72-24.46,35.72-24.46C77.38,52,41.35,70.89,25.81,106.77c0,0,13.23-7.69,23.58-3.21s14.88,19.86,14.88,19.86S64.73,109.51,77.54,91.94Z"/></g></g></svg>