<svg xmlns="http://www.w3.org/2000/svg" viewBox="0 0 179.46 168.46"><defs><style>.cls-1{fill:#5caeff;}.cls-2{fill:#3180f4;}</style></defs><g id="レイヤー_2" data-name="レイヤー 2"><g id="レイヤー_1-2" data-name="レイヤー 1"><path class="cls-1" d="M178.4.87a2.84,2.84,0,0,0-4-.09L52.83,133,57.24,137,178.82,4.84A2.83,2.83,0,0,0,178.4.87Z"/><path class="cls-2" d="M52.45,132.61a3,3,0,0,0-4.26.21L31.47,151.44s-4.84,8.26-13.54.26c-4.84-4.45-4.61-8.73-3.49-11.63a6.56,6.56,0,0,0-1.6-7.24l-.14-.13a6.49,6.49,0,0,0-10.16,1.85c-3.46,6.71-5,16.55,6.22,26.87,17.43,16,32.06-.35,32.06-.35l17.48-19a3,3,0,0,0-.18-4.23l-.88-.81L52.83,133Z"/><path class="cls-1" d="M170.89,8.94S156.6,36,123.18,76.71c-31.26,38.06-51.92,56.4-51.92,56.4s13.37-8.58,18-4.33-2.71,18.38-2.71,18.38C145.92,82.6,184.91,21.84,170.89,8.94Z"/><path class="cls-2" d="M123.18,76.71C156.6,36,170.89,8.94,170.89,8.94S141.72,27.59,107,61.82C73,95.29,55.21,118.35,55.21,118.35s14.67-7.39,18.42-3.94-2.37,18.7-2.37,18.7S91.92,114.77,123.18,76.71Z"/><path class="cls-1" d="M107,61.82c34.73-34.23,63.9-52.88,63.9-52.88-14-12.89-71.32,31-130.7,95.59,0,0,13.66-8.31,17.7-4.6s-2.68,18.42-2.68,18.42S73,95.29,107,61.82Z"/></g></g></svg>