<svg xmlns="http://www.w3.org/2000/svg" viewBox="0 0 174.91 146.31"><defs><style>.cls-1{fill:#5caeff;}.cls-2{fill:#3180f4;}.cls-3{fill:#f0b2c5;}.cls-4{fill:#99e0ff;}</style></defs><g id="レイヤー_2" data-name="レイヤー 2"><g id="レイヤー_1-2" data-name="レイヤー 1"><path class="cls-1" d="M68.33,1.93A1,1,0,0,0,67.74.56a1,1,0,0,0-1.41.51l-27.72,64,2,.87Z"/><path class="cls-2" d="M37.9,76.81l4-9.19a1.21,1.21,0,0,0-.81-1.47L40.64,66,38.51,65,38.33,65a1.11,1.11,0,0,0-1.51.56l-3.74,8.92s-.71,3.62-4.91,1.8a3.91,3.91,0,0,1-2.73-3.88A2.63,2.63,0,0,0,24,69.85l-.07,0a2.56,2.56,0,0,0-3.51,2c-.41,2.9.34,6.76,5.77,9.11C34.57,84.61,37.9,76.81,37.9,76.81Z"/><path class="cls-1" d="M66,4.13a57,57,0,0,1,4.33,32C67.71,53,60.06,59.8,60.06,59.8s9.43-6,18.35-2.19,11.18,15,11.18,15C101.32,45.49,93.13,15.86,66,4.13Z"/><path class="cls-2" d="M70.36,36.14A57,57,0,0,0,66,4.13S49,9,39.06,22.59C29.38,35.87,29,46.37,29,46.37s12-5,19.19-1.82S60.06,59.8,60.06,59.8,67.71,53,70.36,36.14Z"/><path class="cls-1" d="M39.06,22.59C49,9,66,4.13,66,4.13,38.94-7.6,11.73,6.7,0,33.8c0,0,10-5.81,17.81-2.42S29,46.37,29,46.37,29.38,35.87,39.06,22.59Z"/><rect class="cls-3" x="22.2" y="85.51" width="20" height="45" rx="10"/><rect class="cls-3" x="34.7" y="98.01" width="20" height="45" rx="10" transform="translate(-75.81 165.21) rotate(-90)"/><polygon class="cls-3" points="75.2 120.57 51.2 95.57 51.2 145.57 75.2 120.57"/><path class="cls-4" d="M165.42,112.31a15.49,15.49,0,0,0-18.24-14.53c-2.09-5.66-8-9.73-14.85-9.73a17.63,17.63,0,0,0-4,.47,17.92,17.92,0,0,0-33.85,8,16.62,16.62,0,0,0-8.33,30.11,14.21,14.21,0,0,0-.16,2.07,13.89,13.89,0,0,0,24,9.58,13.84,13.84,0,0,0,23.57,2.6,13.22,13.22,0,0,0,23.28-3.77,13.15,13.15,0,1,0,8.65-24.79Z"/></g></g></svg>