<svg xmlns="http://www.w3.org/2000/svg" viewBox="0 0 147.51 153.34"><defs><style>.cls-1{fill:#ea5514;}.cls-2{fill:#9df4f2;}.cls-3{fill:#e83828;}</style></defs><g id="レイヤー_2" data-name="レイヤー 2"><g id="レイヤー_1-2" data-name="レイヤー 1"><polygon class="cls-1" points="35.56 21.2 31.3 23.64 21.75 9.4 28.06 5.77 35.56 21.2"/><polygon class="cls-1" points="22.43 33.65 20.13 37.98 4.46 31 7.88 24.56 22.43 33.65"/><polygon class="cls-1" points="17.11 49.29 17.11 54.2 0 55.39 0 48.1 17.11 49.29"/><polygon class="cls-1" points="20.01 66.37 22.4 70.65 8.05 80.04 4.49 73.69 20.01 66.37"/><polygon class="cls-1" points="31.52 80.56 35.73 83.08 27.96 98.38 21.71 94.64 31.52 80.56"/><polygon class="cls-1" points="49.68 87.04 54.59 87.04 55.78 104.15 48.49 104.15 49.68 87.04"/><polygon class="cls-1" points="68.65 83.21 73 80.92 82 95.53 75.56 98.91 68.65 83.21"/><polygon class="cls-1" points="81.9 71.26 84.24 66.95 99.84 74.09 96.36 80.49 81.9 71.26"/><polygon class="cls-1" points="87.95 54.25 87.95 49.34 105.07 48.16 105.07 55.44 87.95 54.25"/><polygon class="cls-1" points="84.71 37.58 82.36 33.27 96.79 24.01 100.29 30.39 84.71 37.58"/><polygon class="cls-1" points="72.97 23.57 68.8 20.99 76.8 5.82 82.99 9.65 72.97 23.57"/><polygon class="cls-1" points="54.68 17.11 49.77 17.11 48.59 0 55.87 0 54.68 17.11"/><circle class="cls-1" cx="52.01" cy="51.76" r="29.91" transform="translate(-21.37 51.94) rotate(-45)"/><ellipse class="cls-2" cx="105.61" cy="65.57" rx="33.59" ry="34.38"/><ellipse class="cls-2" cx="105.53" cy="113.92" rx="41.98" ry="39.42"/><path class="cls-3" d="M104.55,31.21A50,50,0,0,1,91.82,44.08a48.51,48.51,0,0,1-16.65,6.67L65.11,24.45,84.87,11.31Z"/></g></g></svg>