<svg xmlns="http://www.w3.org/2000/svg" viewBox="0 0 152.33 173.5"><defs><style>.cls-1{fill:#f0b2c5;}.cls-2{fill:#9df4f2;}.cls-3{fill:#e83828;}.cls-4{fill:#ea5514;}</style></defs><g id="レイヤー_2" data-name="レイヤー 2"><g id="レイヤー_1-2" data-name="レイヤー 1"><rect class="cls-1" x="9.32" y="104.13" width="20" height="45" rx="10"/><rect class="cls-1" x="21.82" y="116.63" width="20" height="45" rx="10" transform="translate(-107.31 170.96) rotate(-90)"/><polygon class="cls-1" points="62.33 139.19 38.33 114.19 38.33 164.19 62.33 139.19"/><circle class="cls-2" cx="29.73" cy="37.47" r="23.74" transform="translate(-13.48 57.97) rotate(-76.95)"/><ellipse class="cls-2" cx="29.67" cy="70.85" rx="29.67" ry="27.22"/><path class="cls-3" d="M29,13.74a34.8,34.8,0,0,1-9,8.88A34.76,34.76,0,0,1,8.21,27.24L1.1,9.07,15.06,0Z"/><polygon class="cls-4" points="95.49 105.66 92.01 107.66 84.19 96.01 89.36 93.04 95.49 105.66"/><polygon class="cls-4" points="84.75 115.84 82.87 119.39 70.05 113.67 72.85 108.41 84.75 115.84"/><polygon class="cls-4" points="80.4 128.64 80.4 132.65 66.41 133.62 66.41 127.67 80.4 128.64"/><polygon class="cls-4" points="82.77 142.6 84.73 146.1 72.99 153.78 70.08 148.59 82.77 142.6"/><polygon class="cls-4" points="92.18 154.21 95.63 156.27 89.27 168.78 84.16 165.72 92.18 154.21"/><polygon class="cls-4" points="107.03 159.5 111.05 159.5 112.02 173.5 106.06 173.5 107.03 159.5"/><polygon class="cls-4" points="122.55 156.37 126.1 154.5 133.47 166.45 128.19 169.22 122.55 156.37"/><polygon class="cls-4" points="133.38 146.6 135.3 143.08 148.06 148.92 145.21 154.15 133.38 146.6"/><polygon class="cls-4" points="138.33 132.69 138.33 128.68 152.33 127.71 152.33 133.66 138.33 132.69"/><polygon class="cls-4" points="135.69 119.06 133.76 115.54 145.56 107.96 148.43 113.18 135.69 119.06"/><polygon class="cls-4" points="126.08 107.6 122.67 105.49 129.21 93.08 134.28 96.22 126.08 107.6"/><polygon class="cls-4" points="111.12 102.32 107.11 102.32 106.14 88.33 112.09 88.33 111.12 102.32"/><circle class="cls-4" cx="108.94" cy="130.66" r="24.46" transform="translate(-37.96 216.44) rotate(-80.46)"/></g></g></svg>