<svg xmlns="http://www.w3.org/2000/svg" viewBox="0 0 172.39 164.19"><defs><style>.cls-1{fill:#99e0ff;}.cls-2{fill:#f0b2c5;}.cls-3{fill:#9df4f2;}.cls-4{fill:#e83828;}</style></defs><g id="レイヤー_2" data-name="レイヤー 2"><g id="レイヤー_1-2" data-name="レイヤー 1"><path class="cls-1" d="M161.44,123a17.86,17.86,0,0,0-21-16.76C138,99.7,131.25,95,123.28,95a20,20,0,0,0-4.62.54,20.66,20.66,0,0,0-39,9.21A19.16,19.16,0,0,0,70,139.48a15.73,15.73,0,0,0-.18,2.39,16,16,0,0,0,27.61,11,16,16,0,0,0,27.17,3,15.25,15.25,0,0,0,26.85-4.35,15.16,15.16,0,1,0,10-28.58Z"/><rect class="cls-2" x="9.32" y="104.13" width="20" height="45" rx="10"/><rect class="cls-2" x="21.82" y="116.63" width="20" height="45" rx="10" transform="translate(-107.31 170.96) rotate(-90)"/><polygon class="cls-2" points="62.33 139.19 38.33 114.19 38.33 164.19 62.33 139.19"/><circle class="cls-3" cx="29.73" cy="37.47" r="23.74" transform="translate(-13.48 57.97) rotate(-76.95)"/><ellipse class="cls-3" cx="29.67" cy="70.85" rx="29.67" ry="27.22"/><path class="cls-4" d="M29,13.74a34.8,34.8,0,0,1-9,8.88A34.76,34.76,0,0,1,8.21,27.24L1.1,9.07,15.06,0Z"/></g></g></svg>