<svg xmlns="http://www.w3.org/2000/svg" viewBox="0 0 151.82 150.24"><defs><style>.cls-1{fill:#9fa0a0;}.cls-2{fill:#9df4f2;}.cls-3{fill:#e83828;}</style></defs><g id="レイヤー_2" data-name="レイヤー 2"><g id="レイヤー_1-2" data-name="レイヤー 1"><path class="cls-1" d="M129.6,28.62a18.62,18.62,0,0,0,.43-4.11c-.08-11-9.72-19.84-21.53-19.76a22.09,22.09,0,0,0-15.07,5.91,22.14,22.14,0,0,0-38.25.67A22.09,22.09,0,0,0,39.1,4.7c-11.81.07-21.33,9-21.25,20a18.69,18.69,0,0,0,.24,2.81C7.83,28.77-.07,37,0,46.83.08,57.51,9.45,66.11,20.94,66A21.67,21.67,0,0,0,34.2,61.5,21.54,21.54,0,0,0,53.85,73.24h.38A21.78,21.78,0,0,0,72.28,63.8a21.73,21.73,0,0,0,18.56,9.79A21.44,21.44,0,0,0,110.47,61.3a21.61,21.61,0,0,0,14.7,5.53c11.49-.07,20.74-8.79,20.66-19.47C145.77,38.18,138.84,30.54,129.6,28.62Z"/><ellipse class="cls-2" cx="109.93" cy="62.47" rx="33.59" ry="34.38"/><ellipse class="cls-2" cx="109.84" cy="110.82" rx="41.98" ry="39.42"/><path class="cls-3" d="M108.87,28.11A49.87,49.87,0,0,1,96.14,41a48.66,48.66,0,0,1-16.66,6.68L69.42,21.34,89.18,8.21Z"/></g></g></svg>