<svg xmlns="http://www.w3.org/2000/svg" viewBox="0 0 161.51 161.11"><defs><style>.cls-1{fill:#5caeff;}.cls-2{fill:#3180f4;}.cls-3{fill:#9df4f2;}.cls-4{fill:#e83828;}</style></defs><g id="レイヤー_2" data-name="レイヤー 2"><g id="レイヤー_1-2" data-name="レイヤー 1"><path class="cls-1" d="M90.49,2.56A1.37,1.37,0,0,0,89.7.74a1.37,1.37,0,0,0-1.87.67L51.13,86.19l2.66,1.14Z"/><path class="cls-2" d="M50.19,101.71l5.27-12.16c.34-.78-.3-1.62-1.08-2l-.56-.24L51,86.13,50.75,86a1.46,1.46,0,0,0-2,.74L43.81,98.58s-.94,4.79-6.51,2.38c-3.1-1.34-3.67-3.54-3.62-5.13a3.44,3.44,0,0,0-1.95-3.33l-.09,0A3.39,3.39,0,0,0,27,95.15c-.55,3.83.45,8.95,7.64,12.06C45.78,112,50.19,101.71,50.19,101.71Z"/><path class="cls-1" d="M87.44,5.47a75.45,75.45,0,0,1,5.73,42.39c-3.5,22.37-13.63,31.33-13.63,31.33s12.49-8,24.3-2.89,14.8,19.82,14.8,19.82C134.17,60.24,123.32,21,87.44,5.47Z"/><path class="cls-2" d="M93.17,47.86A75.45,75.45,0,0,0,87.44,5.47s-22.6,6.47-35.71,24.45C38.91,47.5,38.46,61.41,38.46,61.41S54.28,54.84,63.86,59s15.68,20.2,15.68,20.2S89.67,70.23,93.17,47.86Z"/><path class="cls-1" d="M51.73,29.92c13.11-18,35.71-24.45,35.71-24.45C51.56-10.06,15.53,8.88,0,44.76c0,0,13.23-7.69,23.58-3.21S38.46,61.41,38.46,61.41,38.91,47.5,51.73,29.92Z"/><circle class="cls-3" cx="121.93" cy="80.08" r="31.74" transform="translate(16.39 180.78) rotate(-76.95)"/><ellipse class="cls-3" cx="121.85" cy="124.72" rx="39.66" ry="36.4"/><path class="cls-4" d="M120.93,48.36a46.63,46.63,0,0,1-12,11.88A46.62,46.62,0,0,1,93.16,66.4l-9.5-24.28L102.33,30Z"/></g></g></svg>