<svg xmlns="http://www.w3.org/2000/svg" viewBox="0 0 169.87 174.34"><defs><style>.cls-1{fill:#9df4f2;}.cls-2{fill:#e83828;}</style></defs><g id="レイヤー_2" data-name="レイヤー 2"><g id="レイヤー_1-2" data-name="レイヤー 1"><path class="cls-1" d="M169.87,119.1a6.22,6.22,0,1,1-6.22-6.21A6.22,6.22,0,0,1,169.87,119.1Z"/><path class="cls-1" d="M12.44,106.28a6.22,6.22,0,1,1-6.22-6.22A6.22,6.22,0,0,1,12.44,106.28Z"/><circle class="cls-1" cx="155.47" cy="68.99" r="6.22"/><path class="cls-1" d="M23.91,57.18A6.22,6.22,0,1,1,17.69,51,6.22,6.22,0,0,1,23.91,57.18Z"/><path class="cls-1" d="M145.24,21.92A6.22,6.22,0,1,1,139,15.7,6.22,6.22,0,0,1,145.24,21.92Z"/><path class="cls-1" d="M18.23,6.22A6.22,6.22,0,1,1,12,0,6.22,6.22,0,0,1,18.23,6.22Z"/><circle class="cls-1" cx="85.03" cy="68.99" r="41.27" transform="translate(-20.25 38.91) rotate(-23.11)"/><ellipse class="cls-1" cx="84.93" cy="127.02" rx="51.57" ry="47.32"/><path class="cls-2" d="M83.73,27.75A60.49,60.49,0,0,1,68.09,43.19a60.61,60.61,0,0,1-20.46,8L35.27,19.63,59.55,3.86Z"/></g></g></svg>