<svg xmlns="http://www.w3.org/2000/svg" viewBox="0 0 152.04 164.84"><defs><style>.cls-1{fill:#5caeff;}.cls-2{fill:#3180f4;}.cls-3{fill:#f0b2c5;}.cls-4{fill:#9df4f2;}.cls-5{fill:#e83828;}</style></defs><g id="レイヤー_2" data-name="レイヤー 2"><g id="レイヤー_1-2" data-name="レイヤー 1"><path class="cls-1" d="M125.58,84.84a1.09,1.09,0,0,0-2-.87L95.86,148l2,.87Z"/><path class="cls-2" d="M95.15,159.72l4-9.19a1.23,1.23,0,0,0-.81-1.48l-.43-.18L95.76,148l-.18-.08a1.11,1.11,0,0,0-1.51.55l-3.74,8.93s-.71,3.62-4.91,1.8a3.91,3.91,0,0,1-2.73-3.88,2.62,2.62,0,0,0-1.48-2.51l-.07,0a2.56,2.56,0,0,0-3.51,2c-.41,2.9.34,6.76,5.77,9.11C91.82,167.52,95.15,159.72,95.15,159.72Z"/><path class="cls-1" d="M123.28,87a57,57,0,0,1,4.33,32c-2.65,16.89-10.3,23.66-10.3,23.66s9.43-6.05,18.35-2.19,11.18,15,11.18,15C158.57,128.4,150.38,98.77,123.28,87Z"/><path class="cls-2" d="M127.61,119.05a57,57,0,0,0-4.33-32s-17.06,4.89-27,18.46c-9.68,13.28-10,23.78-10,23.78s11.95-5,19.19-1.83,11.83,15.26,11.83,15.26S125,135.94,127.61,119.05Z"/><path class="cls-1" d="M96.31,105.5c9.91-13.57,27-18.46,27-18.46-27.09-11.73-54.3,2.57-66,29.67,0,0,10-5.81,17.81-2.42s11.23,15,11.23,15S86.63,118.78,96.31,105.5Z"/><rect class="cls-3" x="9.32" y="104.13" width="20" height="45" rx="10"/><rect class="cls-3" x="21.82" y="116.63" width="20" height="45" rx="10" transform="translate(-107.31 170.96) rotate(-90)"/><polygon class="cls-3" points="62.33 139.19 38.33 114.19 38.33 164.19 62.33 139.19"/><circle class="cls-4" cx="29.73" cy="37.47" r="23.74" transform="translate(-13.48 57.97) rotate(-76.95)"/><ellipse class="cls-4" cx="29.67" cy="70.85" rx="29.67" ry="27.22"/><path class="cls-5" d="M29,13.74a34.8,34.8,0,0,1-9,8.88A34.76,34.76,0,0,1,8.21,27.24L1.1,9.07,15.06,0Z"/></g></g></svg>