<svg xmlns="http://www.w3.org/2000/svg" viewBox="0 0 183.08 166.89"><defs><style>.cls-1{fill:#ea5514;}.cls-2{fill:#99e0ff;}.cls-3{fill:#f0b2c5;}</style></defs><g id="レイヤー_2" data-name="レイヤー 2"><g id="レイヤー_1-2" data-name="レイヤー 1"><polygon class="cls-1" points="34.55 20.59 30.42 22.97 21.13 9.13 27.27 5.6 34.55 20.59"/><polygon class="cls-1" points="21.8 32.69 19.56 36.9 4.33 30.12 7.65 23.87 21.8 32.69"/><polygon class="cls-1" points="16.63 47.89 16.63 52.66 0 53.82 0 46.74 16.63 47.89"/><polygon class="cls-1" points="19.44 64.48 21.77 68.64 7.82 77.77 4.36 71.59 19.44 64.48"/><polygon class="cls-1" points="30.62 78.28 34.71 80.72 27.17 95.58 21.09 91.95 30.62 78.28"/><polygon class="cls-1" points="48.27 84.56 53.04 84.56 54.19 101.19 47.12 101.19 48.27 84.56"/><polygon class="cls-1" points="66.7 80.84 70.92 78.63 79.67 92.81 73.41 96.1 66.7 80.84"/><polygon class="cls-1" points="79.57 69.23 81.85 65.05 97 71.99 93.62 78.2 79.57 69.23"/><polygon class="cls-1" points="85.45 52.71 85.45 47.94 102.08 46.79 102.08 53.86 85.45 52.71"/><polygon class="cls-1" points="82.31 36.51 80.02 32.33 94.04 23.32 97.44 29.53 82.31 36.51"/><polygon class="cls-1" points="70.9 22.91 66.84 20.39 74.62 5.65 80.64 9.38 70.9 22.91"/><polygon class="cls-1" points="53.13 16.63 48.36 16.63 47.2 0 54.28 0 53.13 16.63"/><circle class="cls-1" cx="50.53" cy="50.29" r="29.06" transform="translate(-7.44 91.79) rotate(-80.46)"/><path class="cls-2" d="M172.78,130A16.81,16.81,0,0,0,153,114.22c-2.27-6.13-8.62-10.55-16.12-10.55a18.77,18.77,0,0,0-4.35.51,19.44,19.44,0,0,0-36.74,8.66,18,18,0,0,0-9,32.68,15.07,15.07,0,0,0,25.82,12.64A15,15,0,0,0,138.13,161a14.35,14.35,0,0,0,25.27-4.09,14.26,14.26,0,1,0,9.38-26.9Z"/><rect class="cls-3" x="24.08" y="106.35" width="20" height="45" rx="10"/><rect class="cls-3" x="36.58" y="118.85" width="20" height="45" rx="10" transform="translate(-94.77 187.93) rotate(-90)"/><polygon class="cls-3" points="77.08 141.41 53.08 116.41 53.08 166.41 77.08 141.41"/></g></g></svg>