<svg xmlns="http://www.w3.org/2000/svg" viewBox="0 0 174.61 170.77"><defs><style>.cls-1{fill:#ea5514;}.cls-2{fill:#5caeff;}.cls-3{fill:#3180f4;}.cls-4{fill:#f0b2c5;}</style></defs><g id="レイヤー_2" data-name="レイヤー 2"><g id="レイヤー_1-2" data-name="レイヤー 1"><polygon class="cls-1" points="34.55 20.59 30.42 22.97 21.13 9.13 27.27 5.6 34.55 20.59"/><polygon class="cls-1" points="21.8 32.69 19.56 36.9 4.33 30.12 7.65 23.87 21.8 32.69"/><polygon class="cls-1" points="16.63 47.89 16.63 52.66 0 53.82 0 46.74 16.63 47.89"/><polygon class="cls-1" points="19.44 64.48 21.77 68.64 7.82 77.77 4.36 71.59 19.44 64.48"/><polygon class="cls-1" points="30.62 78.28 34.71 80.72 27.17 95.58 21.09 91.95 30.62 78.28"/><polygon class="cls-1" points="48.27 84.56 53.04 84.56 54.19 101.19 47.12 101.19 48.27 84.56"/><polygon class="cls-1" points="66.7 80.84 70.92 78.63 79.67 92.81 73.41 96.1 66.7 80.84"/><polygon class="cls-1" points="79.57 69.23 81.85 65.05 97 71.99 93.62 78.2 79.57 69.23"/><polygon class="cls-1" points="85.45 52.71 85.45 47.94 102.08 46.79 102.08 53.86 85.45 52.71"/><polygon class="cls-1" points="82.31 36.51 80.02 32.33 94.04 23.32 97.44 29.53 82.31 36.51"/><polygon class="cls-1" points="70.9 22.91 66.84 20.39 74.62 5.65 80.64 9.38 70.9 22.91"/><polygon class="cls-1" points="53.13 16.63 48.36 16.63 47.2 0 54.28 0 53.13 16.63"/><circle class="cls-1" cx="50.53" cy="50.29" r="29.06" transform="translate(-7.44 91.79) rotate(-80.46)"/><path class="cls-2" d="M148.15,90.78a1.1,1.1,0,0,0-2-.87l-27.71,64,2,.86Z"/><path class="cls-3" d="M117.72,165.65l4-9.19c.26-.59-.22-1.22-.81-1.47l-.42-.19-2.14-.92-.18-.08a1.11,1.11,0,0,0-1.51.56l-3.73,8.92s-.72,3.63-4.92,1.81a3.93,3.93,0,0,1-2.73-3.88,2.61,2.61,0,0,0-1.48-2.52l-.07,0a2.57,2.57,0,0,0-3.51,2c-.41,2.9.35,6.76,5.77,9.11C114.39,173.45,117.72,165.65,117.72,165.65Z"/><path class="cls-2" d="M145.85,93a57,57,0,0,1,4.32,32c-2.64,16.89-10.3,23.65-10.3,23.65s9.44-6,18.36-2.18,11.17,15,11.17,15C181.13,134.33,172.94,104.7,145.85,93Z"/><path class="cls-3" d="M150.17,125a57,57,0,0,0-4.32-32s-17.07,4.89-27,18.47c-9.68,13.27-10,23.77-10,23.77s11.94-5,19.18-1.82,11.83,15.25,11.83,15.25S147.53,141.88,150.17,125Z"/><path class="cls-2" d="M118.88,111.44c9.9-13.58,27-18.47,27-18.47-27.1-11.73-54.31,2.58-66,29.67,0,0,10-5.8,17.81-2.42s11.24,15,11.24,15S109.2,124.71,118.88,111.44Z"/><rect class="cls-4" x="29.01" y="104.36" width="20" height="45" rx="10"/><rect class="cls-4" x="41.51" y="116.86" width="20" height="45" rx="10" transform="translate(-87.84 190.87) rotate(-90)"/><polygon class="cls-4" points="82.01 139.41 58.01 114.41 58.01 164.41 82.01 139.41"/></g></g></svg>