<svg xmlns="http://www.w3.org/2000/svg" viewBox="0 0 201.49 165.65"><defs><style>.cls-1{fill:#99e0ff;}.cls-2{fill:#ea5514;}</style></defs><g id="レイヤー_2" data-name="レイヤー 2"><g id="レイヤー_1-2" data-name="レイヤー 1"><path class="cls-1" d="M167.46,65.05a30.07,30.07,0,0,0-35.41-28.2C128,25.88,116.63,18,103.23,18a33.1,33.1,0,0,0-7.79.92,34.77,34.77,0,0,0-65.7,15.49A32.26,32.26,0,0,0,13.57,92.83a27,27,0,0,0,46.17,22.61,26.85,26.85,0,0,0,45.74,5,25.67,25.67,0,0,0,45.2-7.32,25.51,25.51,0,1,0,16.78-48.11Z"/><polygon class="cls-2" points="114.38 61.69 109.04 64.75 97.06 46.9 104.98 42.35 114.38 61.69"/><polygon class="cls-2" points="97.92 77.29 95.04 82.72 75.4 73.97 79.68 65.91 97.92 77.29"/><polygon class="cls-2" points="91.26 96.9 91.26 103.05 69.81 104.54 69.81 95.41 91.26 96.9"/><polygon class="cls-2" points="94.88 118.3 97.89 123.66 79.9 135.44 75.44 127.47 94.88 118.3"/><polygon class="cls-2" points="109.31 136.09 114.59 139.25 104.85 158.42 97.02 153.73 109.31 136.09"/><polygon class="cls-2" points="132.07 144.2 138.22 144.2 139.71 165.65 130.58 165.65 132.07 144.2"/><polygon class="cls-2" points="155.85 139.4 161.29 136.54 172.58 154.84 164.5 159.08 155.85 139.4"/><polygon class="cls-2" points="172.44 124.43 175.39 119.03 194.94 127.98 190.57 135.99 172.44 124.43"/><polygon class="cls-2" points="180.04 103.11 180.04 96.96 201.49 95.47 201.49 104.6 180.04 103.11"/><polygon class="cls-2" points="175.98 82.22 173.02 76.82 191.11 65.21 195.5 73.21 175.98 82.22"/><polygon class="cls-2" points="161.26 64.67 156.03 61.43 166.06 42.41 173.82 47.22 161.26 64.67"/><polygon class="cls-2" points="138.34 56.57 132.19 56.57 130.7 35.12 139.83 35.12 138.34 56.57"/><circle class="cls-2" cx="134.99" cy="99.99" r="37.48" transform="translate(-11.11 17.08) rotate(-6.95)"/></g></g></svg>