<svg xmlns="http://www.w3.org/2000/svg" viewBox="0 0 181.48 164.1"><defs><style>.cls-1{fill:#5caeff;}.cls-2{fill:#3180f4;}.cls-3{fill:#ea5514;}</style></defs><g id="レイヤー_2" data-name="レイヤー 2"><g id="レイヤー_1-2" data-name="レイヤー 1"><path class="cls-1" d="M90.49,2.56A1.37,1.37,0,0,0,89.7.74a1.37,1.37,0,0,0-1.87.67L51.13,86.19l2.66,1.14Z"/><path class="cls-2" d="M50.19,101.71l5.27-12.16c.34-.78-.3-1.62-1.08-2l-.56-.24L51,86.13,50.75,86a1.46,1.46,0,0,0-2,.74L43.81,98.58s-.94,4.79-6.51,2.38c-3.1-1.34-3.67-3.54-3.62-5.13a3.44,3.44,0,0,0-1.95-3.33l-.09,0A3.39,3.39,0,0,0,27,95.15c-.55,3.83.45,8.95,7.64,12.06C45.78,112,50.19,101.71,50.19,101.71Z"/><path class="cls-1" d="M87.44,5.47a75.45,75.45,0,0,1,5.73,42.39c-3.5,22.37-13.63,31.33-13.63,31.33s12.49-8,24.3-2.89,14.8,19.82,14.8,19.82C134.17,60.24,123.32,21,87.44,5.47Z"/><path class="cls-2" d="M93.17,47.86A75.45,75.45,0,0,0,87.44,5.47s-22.6,6.47-35.71,24.45C38.91,47.5,38.46,61.41,38.46,61.41S54.28,54.84,63.86,59s15.68,20.2,15.68,20.2S89.67,70.23,93.17,47.86Z"/><path class="cls-1" d="M51.73,29.92c13.11-18,35.71-24.45,35.71-24.45C51.56-10.06,15.53,8.88,0,44.76c0,0,13.23-7.69,23.58-3.21S38.46,61.41,38.46,61.41,38.91,47.5,51.73,29.92Z"/><polygon class="cls-3" points="103.41 70.93 98.63 73.68 87.89 57.68 94.99 53.6 103.41 70.93"/><polygon class="cls-3" points="88.66 84.91 86.08 89.78 68.48 81.94 72.32 74.71 88.66 84.91"/><polygon class="cls-3" points="82.69 102.49 82.69 108 63.47 109.33 63.47 101.15 82.69 102.49"/><polygon class="cls-3" points="85.94 121.67 88.63 126.47 72.51 137.03 68.51 129.89 85.94 121.67"/><polygon class="cls-3" points="98.87 137.61 103.6 140.44 94.88 157.62 87.85 153.42 98.87 137.61"/><polygon class="cls-3" points="119.27 144.88 124.78 144.88 126.12 164.1 117.93 164.1 119.27 144.88"/><polygon class="cls-3" points="140.58 140.58 145.46 138.02 155.57 154.41 148.33 158.22 140.58 140.58"/><polygon class="cls-3" points="155.45 127.16 158.09 122.32 175.61 130.34 171.7 137.53 155.45 127.16"/><polygon class="cls-3" points="162.26 108.06 162.26 102.55 181.48 101.21 181.48 109.39 162.26 108.06"/><polygon class="cls-3" points="158.62 89.33 155.97 84.5 172.18 74.09 176.12 81.26 158.62 89.33"/><polygon class="cls-3" points="145.43 73.6 140.74 70.7 149.73 53.65 156.69 57.96 145.43 73.6"/><polygon class="cls-3" points="124.89 66.35 119.37 66.35 118.04 47.12 126.22 47.12 124.89 66.35"/><circle class="cls-3" cx="121.89" cy="105.26" r="33.59" transform="translate(-11.85 15.53) rotate(-6.95)"/></g></g></svg>