<svg xmlns="http://www.w3.org/2000/svg" viewBox="0 0 159.52 167.84"><defs><style>.cls-1{fill:#9df4f2;}.cls-2{fill:#e83828;}.cls-3{fill:#ea5514;}</style></defs><g id="レイヤー_2" data-name="レイヤー 2"><g id="レイヤー_1-2" data-name="レイヤー 1"><ellipse class="cls-1" cx="42.06" cy="54.26" rx="33.59" ry="34.38"/><ellipse class="cls-1" cx="41.98" cy="102.61" rx="41.98" ry="39.42"/><path class="cls-2" d="M41,19.9A50,50,0,0,1,28.27,32.77a48.51,48.51,0,0,1-16.65,6.67L1.56,13.14,21.32,0Z"/><polygon class="cls-3" points="90.01 84.89 85.76 87.33 76.2 73.09 82.51 69.46 90.01 84.89"/><polygon class="cls-3" points="76.88 97.34 74.58 101.67 58.91 94.69 62.33 88.25 76.88 97.34"/><polygon class="cls-3" points="71.56 112.98 71.56 117.89 54.45 119.08 54.45 111.8 71.56 112.98"/><polygon class="cls-3" points="74.46 130.06 76.85 134.34 62.5 143.73 58.94 137.38 74.46 130.06"/><polygon class="cls-3" points="85.97 144.25 90.18 146.77 82.41 162.07 76.16 158.33 85.97 144.25"/><polygon class="cls-3" points="104.13 150.73 109.04 150.73 110.23 167.84 102.94 167.84 104.13 150.73"/><polygon class="cls-3" points="123.1 146.9 127.45 144.61 136.46 159.22 130.01 162.6 123.1 146.9"/><polygon class="cls-3" points="136.35 134.95 138.69 130.64 154.29 137.78 150.81 144.18 136.35 134.95"/><polygon class="cls-3" points="142.4 117.94 142.4 113.03 159.52 111.84 159.52 119.13 142.4 117.94"/><polygon class="cls-3" points="139.16 101.27 136.81 96.97 151.24 87.7 154.74 94.08 139.16 101.27"/><polygon class="cls-3" points="127.42 87.26 123.25 84.68 131.25 69.5 137.44 73.34 127.42 87.26"/><polygon class="cls-3" points="109.13 80.81 104.22 80.81 103.03 63.69 110.32 63.69 109.13 80.81"/><circle class="cls-3" cx="106.46" cy="115.45" r="29.91" transform="translate(-50.45 109.09) rotate(-45)"/></g></g></svg>