<svg xmlns="http://www.w3.org/2000/svg" viewBox="0 0 167.08 165.62"><defs><style>.cls-1{fill:#ea5514;}</style></defs><g id="レイヤー_2" data-name="レイヤー 2"><g id="レイヤー_1-2" data-name="レイヤー 1"><polygon class="cls-1" points="56.55 33.71 49.78 37.59 34.58 14.94 44.62 9.17 56.55 33.71"/><polygon class="cls-1" points="35.67 53.5 32.01 60.39 7.09 49.29 12.53 39.06 35.67 53.5"/><polygon class="cls-1" points="27.21 78.39 27.21 86.19 0 88.08 0 76.5 27.21 78.39"/><polygon class="cls-1" points="31.81 105.53 35.63 112.34 12.8 127.28 7.14 117.18 31.81 105.53"/><polygon class="cls-1" points="50.12 128.11 56.81 132.12 44.46 156.44 34.52 150.49 50.12 128.11"/><polygon class="cls-1" points="79 138.4 86.8 138.4 88.69 165.62 77.11 165.62 79 138.4"/><polygon class="cls-1" points="109.17 132.31 116.08 128.68 130.4 151.9 120.15 157.28 109.17 132.31"/><polygon class="cls-1" points="130.23 113.31 133.96 106.46 158.76 117.82 153.22 127.99 130.23 113.31"/><polygon class="cls-1" points="139.86 86.27 139.86 78.46 167.08 76.57 167.08 88.16 139.86 86.27"/><polygon class="cls-1" points="134.71 59.76 130.96 52.91 153.91 38.17 159.48 48.33 134.71 59.76"/><polygon class="cls-1" points="116.04 37.49 109.4 33.38 122.13 9.25 131.97 15.35 116.04 37.49"/><polygon class="cls-1" points="86.95 27.21 79.15 27.21 77.26 0 88.84 0 86.95 27.21"/><circle class="cls-1" cx="82.71" cy="82.31" r="47.56" transform="translate(-12.17 150.23) rotate(-80.46)"/></g></g></svg>