<svg xmlns="http://www.w3.org/2000/svg" viewBox="0 0 161.35 175.77"><defs><style>.cls-1{fill:#ea5514;}.cls-2{fill:#f0b2c5;}.cls-3{fill:#9df4f2;}.cls-4{fill:#e83828;}</style></defs><g id="レイヤー_2" data-name="レイヤー 2"><g id="レイヤー_1-2" data-name="レイヤー 1"><polygon class="cls-1" points="31.59 18.83 27.81 21 19.32 8.35 24.93 5.12 31.59 18.83"/><polygon class="cls-1" points="19.93 29.89 17.88 33.74 3.96 27.54 7 21.82 19.93 29.89"/><polygon class="cls-1" points="15.21 43.8 15.21 48.16 0 49.21 0 42.74 15.21 43.8"/><polygon class="cls-1" points="17.77 58.96 19.9 62.77 7.15 71.12 3.99 65.47 17.77 58.96"/><polygon class="cls-1" points="28 71.58 31.74 73.82 24.84 87.41 19.29 84.08 28 71.58"/><polygon class="cls-1" points="44.14 77.33 48.5 77.33 49.55 92.53 43.08 92.53 44.14 77.33"/><polygon class="cls-1" points="60.99 73.92 64.85 71.9 72.86 84.87 67.13 87.88 60.99 73.92"/><polygon class="cls-1" points="72.76 63.31 74.85 59.48 88.7 65.83 85.61 71.51 72.76 63.31"/><polygon class="cls-1" points="78.14 48.2 78.14 43.84 93.35 42.78 93.35 49.26 78.14 48.2"/><polygon class="cls-1" points="75.27 33.39 73.17 29.56 86 21.33 89.11 27 75.27 33.39"/><polygon class="cls-1" points="64.83 20.95 61.13 18.65 68.23 5.17 73.74 8.57 64.83 20.95"/><polygon class="cls-1" points="48.58 15.21 44.22 15.21 43.17 0 49.64 0 48.58 15.21"/><circle class="cls-1" cx="46.21" cy="45.99" r="26.57" transform="translate(-6.8 83.94) rotate(-80.46)"/><rect class="cls-2" x="32.01" y="98.36" width="20" height="45" rx="10"/><rect class="cls-2" x="44.51" y="110.86" width="20" height="45" rx="10" transform="translate(-78.84 187.87) rotate(-90)"/><polygon class="cls-2" points="85.01 133.41 61.01 108.41 61.01 158.41 85.01 133.41"/><circle class="cls-3" cx="126.47" cy="104.37" r="27.97" transform="translate(-3.76 204.01) rotate(-76.95)"/><ellipse class="cls-3" cx="126.4" cy="143.7" rx="34.95" ry="32.07"/><path class="cls-4" d="M125.59,76.42A41,41,0,0,1,115,86.88a41.11,41.11,0,0,1-13.87,5.44l-8.38-21.4,16.45-10.69Z"/></g></g></svg>