<svg xmlns="http://www.w3.org/2000/svg" viewBox="0 0 190 170.16"><defs><style>.cls-1{fill:#ffea2e;}.cls-2{fill:#9fa0a0;}</style></defs><g id="レイヤー_2" data-name="レイヤー 2"><g id="レイヤー_1-2" data-name="レイヤー 1"><polygon class="cls-1" points="140.56 104.53 118.5 136.64 132.67 143.13 123.16 169.96 151.41 140.53 135.72 132.31 140.56 104.53"/><polygon class="cls-1" points="97.5 104.53 75.44 136.64 89.61 143.13 80.11 169.96 108.35 140.53 92.66 132.31 97.5 104.53"/><polygon class="cls-1" points="54.19 104.72 32.13 136.83 46.3 143.32 36.79 170.16 65.04 140.73 49.35 132.5 54.19 104.72"/><path class="cls-2" d="M168.85,39a25.89,25.89,0,0,0,.56-5.6c-.1-15-12.66-27-28-26.93a28.17,28.17,0,0,0-19.64,8.05,28.22,28.22,0,0,0-49.83.92,28.17,28.17,0,0,0-21-9c-15.39.1-27.78,12.32-27.68,27.29a26.86,26.86,0,0,0,.31,3.83C10.2,39.21-.09,50.37,0,63.82.1,78.39,12.31,90.11,27.28,90a27.41,27.41,0,0,0,17.27-6.19,27.93,27.93,0,0,0,25.61,16h.49A28,28,0,0,0,94.17,87a28.22,28.22,0,0,0,49.76-3.41,27.41,27.41,0,0,0,19.15,7.53c15-.09,27-12,26.92-26.53A26.57,26.57,0,0,0,168.85,39Z"/></g></g></svg>